<svg xmlns="http://www.w3.org/2000/svg" xmlns:xlink="http://www.w3.org/1999/xlink" version="1.1" id="Layer_1" x="0px" y="0px" enable-background="new 0 0 299 141" xml:space="preserve" viewBox="1 1.04 299 140.9">
<path fill="#F58322" opacity="1.000000" stroke="none" d=" M1.000001,82.000000   C1.000000,55.025642 1.000000,28.051283 1.000000,1.038462   C100.546364,1.038462 200.092743,1.038462 300.000000,1.038462   C300.000000,27.686476 300.000000,54.374580 299.662292,81.657104   C251.103500,101.100304 202.899200,119.992584 154.612610,138.672073   C152.143173,139.627365 148.649826,139.574234 146.166458,138.612991   C97.730148,119.864685 49.373199,100.911346 1.000001,82.000000  M263.771057,28.264835   C262.556885,25.413012 261.870972,22.675421 257.419830,22.722897   C253.032944,22.769690 252.295685,25.431791 251.073639,28.299572   C247.694702,36.228947 244.291931,44.148163 240.468964,51.195072   C240.468964,41.969372 240.468964,32.743675 240.468964,23.565058   C237.095703,23.565058 234.719559,23.565058 231.743210,23.565058   C231.743210,28.152714 231.743210,32.320335 231.743210,37.751080   C228.444702,33.512848 225.736984,30.548008 223.634064,27.202955   C220.940201,22.917864 217.422150,22.392490 212.899261,23.713434   C212.899261,33.263386 212.899261,42.657951 212.899261,52.324459   C215.578186,52.324459 217.963760,52.324459 220.967957,52.324459   C220.967957,47.665234 220.967957,43.306206 220.967957,38.947178   C224.673889,41.904823 227.606049,45.030437 229.849228,48.590214   C232.737991,53.174477 236.399719,53.598083 241.702225,52.223011   C245.527924,52.708614 248.863541,53.761536 251.827835,48.986691   C252.923676,47.221542 261.750671,47.267715 262.917664,49.108543   C266.116394,54.154282 269.427521,52.559299 273.720001,52.110855   C270.649078,44.706059 267.807251,37.853676 265.744019,30.987934   C270.087708,33.552563 272.332458,30.321356 273.591156,27.323584   C274.030670,26.276825 271.187073,23.851572 269.271729,21.293009   C267.147430,24.426352 265.623291,26.674429 263.771057,28.264835  M139.889313,52.006660   C148.201797,53.857944 148.675339,53.487881 148.681427,45.131111   C148.682922,43.075127 148.681656,41.019142 148.681656,38.607590   C156.065536,42.546173 156.508652,54.923012 167.755356,52.240829   C167.755356,42.416519 167.755356,33.021011 167.755356,23.544926   C165.023026,23.544926 162.657791,23.544926 159.782715,23.544926   C159.782715,28.169390 159.782715,32.378563 159.782715,38.051834   C156.353226,33.655090 153.579193,30.590967 151.382614,27.157427   C148.661545,22.904032 145.123856,22.377567 140.237152,23.786701   C140.237152,31.251005 140.311539,38.694458 140.179703,46.134251   C140.150360,47.790535 139.395218,49.433964 138.885422,50.340466   C135.478806,42.230679 132.194962,34.064964 128.549515,26.063992   C127.912827,24.666607 125.822990,23.269867 124.281281,23.117493   C122.447670,22.936268 119.321892,23.557547 118.757431,24.765976   C114.585892,33.696598 110.913193,42.860229 107.018707,52.104660   C113.204781,53.016914 112.622879,52.134651 117.543968,48.888905   C120.255440,47.100540 127.310501,47.310104 128.892822,49.347893   C132.236450,53.653980 135.189865,52.955547 139.889313,52.006660  M94.153786,68.494324   C94.736053,68.240463 95.318329,67.986595 95.717613,66.844612   C95.717613,52.299469 95.717613,37.754326 95.717613,22.887726   C83.957001,22.887726 73.025391,22.872795 62.094204,22.934507   C61.580616,22.937407 61.070877,23.622585 60.430275,23.982929   C60.430275,23.982929 60.311649,24.034285 59.786385,23.292641   C48.374908,23.292641 36.963432,23.292641 25.341415,23.292641   C25.341415,38.222904 25.341415,53.050991 25.341415,69.148964   C33.579208,58.335636 41.085140,48.482986 48.844208,38.298058   C51.925392,40.515285 54.720131,42.295353 57.236366,44.407249   C59.405430,46.227760 61.124821,46.310619 63.321625,44.442097   C65.833527,42.305573 68.634293,40.508675 71.813301,38.198059   C79.341675,48.322819 86.666397,58.173698 94.153786,68.494324  M190.433640,51.157017   C197.398666,47.333366 200.317322,41.450924 198.771423,34.352539   C197.349869,27.825121 191.809570,23.501266 184.126205,23.176920   C179.889053,22.998053 175.638153,23.144884 171.269928,23.144884   C171.269928,33.292824 171.269928,42.667446 171.269928,53.131363   C177.661087,52.554939 183.686111,52.011539 190.433640,51.157017  M209.670547,40.475521   C209.670547,34.887161 209.670547,29.298801 209.670547,23.522709   C206.548767,23.522709 204.051163,23.522709 201.142990,23.522709   C201.142990,32.541023 201.045868,41.131039 201.271439,49.712582   C201.298279,50.733738 202.950607,52.345829 204.082809,52.586529   C207.608795,53.336143 210.364075,52.661858 209.718674,47.912899   C209.431381,45.798870 209.670349,43.613323 209.670547,40.475521  M229.831635,60.883411   C225.705688,57.770081 221.649734,57.903358 219.730698,61.391598   C217.930237,64.664337 218.641953,67.808243 222.000458,69.276932   C223.785126,70.057381 227.297577,69.986862 228.258148,68.829613   C229.721512,67.066628 229.647430,64.027481 229.831635,60.883411  M117.057098,60.434334   C112.151207,57.478924 107.403023,58.439907 106.914658,62.844326   C106.689743,64.872643 107.826706,68.019569 109.391014,69.011513   C111.014450,70.040955 114.336678,69.841728 116.136223,68.814224   C119.075127,67.136177 119.169456,63.995575 117.057098,60.434334  M203.115021,69.928406   C206.276474,68.866600 207.967865,66.467163 207.015671,63.431599   C206.437180,61.587357 204.463104,59.513641 202.645142,58.867317   C199.096100,57.605549 195.840500,60.124210 195.439102,63.677002   C194.999817,67.565201 197.259964,69.663399 203.115021,69.928406  M173.096497,66.270470   C173.475983,67.430336 173.877441,69.596519 174.231430,69.588783   C176.765366,69.533455 179.723465,69.706665 181.668655,68.449043   C183.027481,67.570518 184.010269,64.067497 183.322571,62.595798   C182.506454,60.849239 179.828522,59.751541 177.741302,58.906391   C176.566391,58.430653 174.955978,59.030380 173.094254,59.182079   C173.094254,61.478447 173.094254,63.422459 173.096497,66.270470  M252.009262,64.086288   C251.869446,58.680771 249.754929,57.664497 242.003311,59.840706   C242.404602,63.041073 242.822464,66.373688 243.240326,69.706299   C244.475067,69.089821 245.709808,68.473335 246.757965,67.950012   C248.201874,68.639381 249.785690,69.395561 251.678726,70.299370   C251.678726,67.906876 251.678726,66.376770 252.009262,64.086288  M271.013916,58.758766   C260.872650,57.188129 267.495941,65.708862 264.440460,68.674507   C268.118500,70.305977 271.905029,71.712181 273.409058,67.632431   C274.280884,65.267494 272.387878,61.883305 271.013916,58.758766  M137.771957,69.657028   C138.625198,66.825294 139.585922,64.018089 140.242218,61.141430   C140.375565,60.556911 139.361725,59.710663 138.876755,58.985073   C138.250534,59.739620 137.297546,60.406109 137.065567,61.266891   C136.570663,63.103462 136.449524,65.040771 136.175247,66.936798   C135.526459,66.939537 134.877686,66.942268 134.228897,66.945007   C133.937988,65.037827 133.802383,63.087296 133.287460,61.242661   C133.047440,60.382885 132.072235,59.728344 131.430283,58.980778   C130.942841,59.715164 130.161163,60.395424 130.014526,61.192513   C128.848740,67.529465 130.898788,70.031738 137.771957,69.657028  M155.133530,67.980446   C155.725998,68.601517 156.318481,69.222595 156.910934,69.843658   C157.381088,69.290024 158.078278,68.808975 158.282471,68.170319   C159.216202,65.249702 160.011719,62.284912 160.793045,59.558746   C158.302750,59.558746 155.173691,59.558746 153.033920,59.558746   C153.822495,62.453106 154.462006,64.800369 155.133530,67.980446  z"/>
<path fill="#FFFEFE" opacity="1.000000" stroke="none" d=" M1.000001,82.468658   C49.373199,100.911346 97.730148,119.864685 146.166458,138.612991   C148.649826,139.574234 152.143173,139.627365 154.612610,138.672073   C202.899200,119.992584 251.103500,101.100304 299.662292,82.125763   C300.000000,101.979103 300.000000,121.958199 300.000000,141.937561   C200.333313,141.937836 100.666649,141.937836 1.000000,141.937836   C1.000000,122.229553 1.000000,102.583435 1.000001,82.468658  z"/>
<path fill="#FFFBF8" opacity="1.000000" stroke="none" d=" M60.559345,23.990017   C61.070877,23.622585 61.580616,22.937407 62.094204,22.934507   C73.025391,22.872795 83.957001,22.887726 95.717613,22.887726   C95.717613,37.754326 95.717613,52.299469 95.503876,67.408348   C94.857132,67.989578 94.424126,68.007080 93.991119,68.024574   C86.666397,58.173698 79.341675,48.322819 71.813301,38.198059   C68.634293,40.508675 65.833527,42.305573 63.321625,44.442097   C61.124821,46.310619 59.405430,46.227760 57.236366,44.407249   C54.720131,42.295353 51.925392,40.515285 48.844208,38.298058   C41.085140,48.482986 33.579208,58.335636 25.341415,69.148964   C25.341415,53.050991 25.341415,38.222904 25.341415,23.292641   C36.963432,23.292641 48.374908,23.292641 59.714790,23.769802   C57.123123,27.465149 54.603054,30.683332 52.124760,33.848171   C59.959270,41.277378 61.953720,41.222610 68.244415,33.491829   C65.721962,30.373070 63.140652,27.181543 60.559345,23.990017  z"/>
<path fill="#FEF8F2" opacity="1.000000" stroke="none" d=" M138.974258,51.083309   C139.395218,49.433964 140.150360,47.790535 140.179703,46.134251   C140.311539,38.694458 140.237152,31.251005 140.237152,23.786701   C145.123856,22.377567 148.661545,22.904032 151.382614,27.157427   C153.579193,30.590967 156.353226,33.655090 159.782715,38.051834   C159.782715,32.378563 159.782715,28.169390 159.782715,23.544926   C162.657791,23.544926 165.023026,23.544926 167.755356,23.544926   C167.755356,33.021011 167.755356,42.416519 167.755356,52.240829   C156.508652,54.923012 156.065536,42.546173 148.681656,38.607590   C148.681656,41.019142 148.682922,43.075127 148.681427,45.131111   C148.675339,53.487881 148.201797,53.857944 139.440430,51.773804   C138.991562,51.540951 138.974258,51.083309 138.974258,51.083309  z"/>
<path fill="#FFFAF6" opacity="1.000000" stroke="none" d=" M240.916336,51.772099   C236.399719,53.598083 232.737991,53.174477 229.849228,48.590214   C227.606049,45.030437 224.673889,41.904823 220.967957,38.947178   C220.967957,43.306206 220.967957,47.665234 220.967957,52.324459   C217.963760,52.324459 215.578186,52.324459 212.899261,52.324459   C212.899261,42.657951 212.899261,33.263386 212.899261,23.713434   C217.422150,22.392490 220.940201,22.917864 223.634064,27.202955   C225.736984,30.548008 228.444702,33.512848 231.743210,37.751080   C231.743210,32.320335 231.743210,28.152714 231.743210,23.565058   C234.719559,23.565058 237.095703,23.565058 240.468964,23.565058   C240.468964,32.743675 240.468964,41.969372 240.700134,51.579601   C240.931290,51.964130 240.916336,51.772099 240.916336,51.772099  z"/>
<path fill="#FFF9F4" opacity="1.000000" stroke="none" d=" M190.072388,51.312576   C183.686111,52.011539 177.661087,52.554939 171.269928,53.131363   C171.269928,42.667446 171.269928,33.292824 171.269928,23.144884   C175.638153,23.144884 179.889053,22.998053 184.126205,23.176920   C191.809570,23.501266 197.349869,27.825121 198.771423,34.352539   C200.317322,41.450924 197.398666,47.333366 190.072388,51.312576  M180.662674,45.025730   C181.488113,45.058666 182.319992,45.174465 183.137939,45.110905   C187.943710,44.737469 190.737610,41.885761 190.559158,37.591236   C190.379669,33.271507 186.793274,30.122667 182.080048,30.540409   C181.070923,30.629850 179.395432,32.063881 179.373642,32.913067   C179.273163,36.826958 179.649124,40.753082 180.662674,45.025730  z"/>
<path fill="#FEF8F3" opacity="1.000000" stroke="none" d=" M241.309280,51.997555   C240.916336,51.772099 240.931290,51.964130 240.914917,52.017761   C244.291931,44.148163 247.694702,36.228947 251.073639,28.299572   C252.295685,25.431791 253.032944,22.769690 257.419830,22.722897   C261.870972,22.675421 262.556885,25.413012 263.932404,28.888130   C264.384308,30.008049 264.674866,30.504675 264.965424,31.001297   C267.807251,37.853676 270.649078,44.706059 273.720001,52.110855   C269.427521,52.559299 266.116394,54.154282 262.917664,49.108543   C261.750671,47.267715 252.923676,47.221542 251.827835,48.986691   C248.863541,53.761536 245.527924,52.708614 241.309280,51.997555  z"/>
<path fill="#FFF9F4" opacity="1.000000" stroke="none" d=" M138.929840,50.711887   C138.974258,51.083309 138.991562,51.540951 139.006256,51.654171   C135.189865,52.955547 132.236450,53.653980 128.892822,49.347893   C127.310501,47.310104 120.255440,47.100540 117.543968,48.888905   C112.622879,52.134651 113.204781,53.016914 107.018707,52.104660   C110.913193,42.860229 114.585892,33.696598 118.757431,24.765976   C119.321892,23.557547 122.447670,22.936268 124.281281,23.117493   C125.822990,23.269867 127.912827,24.666607 128.549515,26.063992   C132.194962,34.064964 135.478806,42.230679 138.929840,50.711887  M124.077820,40.900612   C128.097595,38.191681 123.543648,36.702648 123.154808,34.590755   C123.172028,36.716122 117.574348,38.901115 124.077820,40.900612  z"/>
<path fill="#FEF2E8" opacity="1.000000" stroke="none" d=" M209.670502,40.967880   C209.670349,43.613323 209.431381,45.798870 209.718674,47.912899   C210.364075,52.661858 207.608795,53.336143 204.082809,52.586529   C202.950607,52.345829 201.298279,50.733738 201.271439,49.712582   C201.045868,41.131039 201.142990,32.541023 201.142990,23.522709   C204.051163,23.522709 206.548767,23.522709 209.670547,23.522709   C209.670547,29.298801 209.670547,34.887161 209.670502,40.967880  z"/>
<path fill="#F6892D" opacity="1.000000" stroke="none" d=" M60.494812,23.986473   C63.140652,27.181543 65.721962,30.373070 68.244415,33.491829   C61.953720,41.222610 59.959270,41.277378 52.124760,33.848171   C54.603054,30.683332 57.123123,27.465149 59.977421,24.140625   C60.311649,24.034285 60.430275,23.982929 60.494812,23.986473  z"/>
<path fill="#FEEEE1" opacity="1.000000" stroke="none" d=" M230.028931,61.206829   C229.647430,64.027481 229.721512,67.066628 228.258148,68.829613   C227.297577,69.986862 223.785126,70.057381 222.000458,69.276932   C218.641953,67.808243 217.930237,64.664337 219.730698,61.391598   C221.649734,57.903358 225.705688,57.770081 230.028931,61.206829  z"/>
<path fill="#FEEEE0" opacity="1.000000" stroke="none" d=" M117.286835,60.716751   C119.169456,63.995575 119.075127,67.136177 116.136223,68.814224   C114.336678,69.841728 111.014450,70.040955 109.391014,69.011513   C107.826706,68.019569 106.689743,64.872643 106.914658,62.844326   C107.403023,58.439907 112.151207,57.478924 117.286835,60.716751  z"/>
<path fill="#FEEDDF" opacity="1.000000" stroke="none" d=" M202.714722,69.994049   C197.259964,69.663399 194.999817,67.565201 195.439102,63.677002   C195.840500,60.124210 199.096100,57.605549 202.645142,58.867317   C204.463104,59.513641 206.437180,61.587357 207.015671,63.431599   C207.967865,66.467163 206.276474,68.866600 202.714722,69.994049  z"/>
<path fill="#FDEBDB" opacity="1.000000" stroke="none" d=" M173.095367,65.818466   C173.094254,63.422459 173.094254,61.478447 173.094254,59.182079   C174.955978,59.030380 176.566391,58.430653 177.741302,58.906391   C179.828522,59.751541 182.506454,60.849239 183.322571,62.595798   C184.010269,64.067497 183.027481,67.570518 181.668655,68.449043   C179.723465,69.706665 176.765366,69.533455 174.231430,69.588783   C173.877441,69.596519 173.475983,67.430336 173.095367,65.818466  z"/>
<path fill="#FEECDE" opacity="1.000000" stroke="none" d=" M251.843994,64.466476   C251.678726,66.376770 251.678726,67.906876 251.678726,70.299370   C249.785690,69.395561 248.201874,68.639381 246.757965,67.950012   C245.709808,68.473335 244.475067,69.089821 243.240326,69.706299   C242.822464,66.373688 242.404602,63.041073 242.003311,59.840706   C249.754929,57.664497 251.869446,58.680771 251.843994,64.466476  z"/>
<path fill="#FEECDE" opacity="1.000000" stroke="none" d=" M271.376526,58.858284   C272.387878,61.883305 274.280884,65.267494 273.409058,67.632431   C271.905029,71.712181 268.118500,70.305977 264.440460,68.674507   C267.495941,65.708862 260.872650,57.188129 271.376526,58.858284  z"/>
<path fill="#FEF3EA" opacity="1.000000" stroke="none" d=" M137.387085,69.780518   C130.898788,70.031738 128.848740,67.529465 130.014526,61.192513   C130.161163,60.395424 130.942841,59.715164 131.430283,58.980778   C132.072235,59.728344 133.047440,60.382885 133.287460,61.242661   C133.802383,63.087296 133.937988,65.037827 134.228897,66.945007   C134.877686,66.942268 135.526459,66.939537 136.175247,66.936798   C136.449524,65.040771 136.570663,63.103462 137.065567,61.266891   C137.297546,60.406109 138.250534,59.739620 138.876755,58.985073   C139.361725,59.710663 140.375565,60.556911 140.242218,61.141430   C139.585922,64.018089 138.625198,66.825294 137.387085,69.780518  z"/>
<path fill="#F8AC6B" opacity="1.000000" stroke="none" d=" M265.354736,30.994617   C264.674866,30.504675 264.384308,30.008049 264.096466,29.216965   C265.623291,26.674429 267.147430,24.426352 269.271729,21.293009   C271.187073,23.851572 274.030670,26.276825 273.591156,27.323584   C272.332458,30.321356 270.087708,33.552563 265.354736,30.994617  z"/>
<path fill="#FEEEE1" opacity="1.000000" stroke="none" d=" M155.117523,67.564041   C154.462006,64.800369 153.822495,62.453106 153.033920,59.558746   C155.173691,59.558746 158.302750,59.558746 160.793045,59.558746   C160.011719,62.284912 159.216202,65.249702 158.282471,68.170319   C158.078278,68.808975 157.381088,69.290024 156.910950,69.843658   C156.318481,69.222595 155.725998,68.601517 155.117523,67.564041  z"/>
<path fill="#F6892D" opacity="1.000000" stroke="none" d=" M94.072449,68.259445   C94.424126,68.007080 94.857132,67.989578 95.595367,67.852402   C95.318329,67.986595 94.736053,68.240463 94.072449,68.259445  z"/>
<path fill="#F68A2E" opacity="1.000000" stroke="none" d=" M180.258453,44.850273   C179.649124,40.753082 179.273163,36.826958 179.373642,32.913067   C179.395432,32.063881 181.070923,30.629850 182.080048,30.540409   C186.793274,30.122667 190.379669,33.271507 190.559158,37.591236   C190.737610,41.885761 187.943710,44.737469 183.137939,45.110905   C182.319992,45.174465 181.488113,45.058666 180.258453,44.850273  z"/>
<path fill="#F79543" opacity="1.000000" stroke="none" d=" M123.679100,40.906609   C117.574348,38.901115 123.172028,36.716122 123.154808,34.590755   C123.543648,36.702648 128.097595,38.191681 123.679100,40.906609  z"/>
</svg>