<svg xmlns="http://www.w3.org/2000/svg" xmlns:xlink="http://www.w3.org/1999/xlink" width="162" height="32" viewBox="0 0 162 32">
  <defs>
    <clipPath id="clip-path">
      <rect id="Rectángulo_279" data-name="Rectángulo 279" width="162" height="32" transform="translate(77 1028)" fill="#848688" stroke="#707070" stroke-width="1"/>
    </clipPath>
  </defs>
  <g id="Enmascarar_grupo_2" data-name="Enmascarar grupo 2" transform="translate(-77 -1028)" clip-path="url(#clip-path)">
    <g id="Grupo_Michell" transform="translate(77 1031.82)">
      <path id="Trazado_6257" data-name="Trazado 6257" d="M18.432,8.169a2.584,2.584,0,0,0,1.72-.4,2.523,2.523,0,0,0,.423-1.747v-.46H15.963v-1H21.7v1.46a6.557,6.557,0,0,1-.163,1.8,1.762,1.762,0,0,1-.557.82,2.155,2.155,0,0,1-1.014.439,12.381,12.381,0,0,1-2.112.129H14.639a9.924,9.924,0,0,1-2-.144,2.434,2.434,0,0,1-1.059-.5,2.193,2.193,0,0,1-.649-1,5.536,5.536,0,0,1-.2-1.655V3.459a6.348,6.348,0,0,1,.2-1.786A2.179,2.179,0,0,1,11.584.628,2.369,2.369,0,0,1,12.642.142,10.158,10.158,0,0,1,14.628,0h3.226a5.614,5.614,0,0,1,2.981.546,2.269,2.269,0,0,1,.78,1.991v.286c0,.066-.005.129-.011.189H20.578V2.882a1.922,1.922,0,0,0-.462-1.471A2.454,2.454,0,0,0,18.476.99H14.184a4.011,4.011,0,0,0-1.245.15,1.381,1.381,0,0,0-.688.5A1.605,1.605,0,0,0,12,2.233a6.466,6.466,0,0,0-.071,1.153V5.771A6.487,6.487,0,0,0,12,6.924a1.605,1.605,0,0,0,.247.591,1.35,1.35,0,0,0,.693.5,4.031,4.031,0,0,0,1.24.15h4.25ZM30.459,1.087H24.8V4.534h5.663a2.9,2.9,0,0,0,1.6-.3,1.463,1.463,0,0,0,.4-1.211V2.6a1.459,1.459,0,0,0-.4-1.208,2.9,2.9,0,0,0-1.6-.3h0ZM24.8,9.1H23.68V.11H30.1a5.877,5.877,0,0,1,2.842.454,1.859,1.859,0,0,1,.7,1.681v1.08a1.787,1.787,0,0,1-.347,1.219,2.275,2.275,0,0,1-1.235.573,1.605,1.605,0,0,1,1.111.523,1.843,1.843,0,0,1,.373,1.229V9.1H32.422v-2a1.512,1.512,0,0,0-.384-1.2,3.179,3.179,0,0,0-1.789-.32H24.8V9.1h0Zm14.576.11a9.768,9.768,0,0,1-1.957-.142,2.339,2.339,0,0,1-1.038-.486,2.119,2.119,0,0,1-.638-1,5.521,5.521,0,0,1-.2-1.65V.11h1.148V5.936a5.3,5.3,0,0,0,.071,1.038A1.553,1.553,0,0,0,37,7.531a1.316,1.316,0,0,0,.675.5,3.8,3.8,0,0,0,1.216.155h3.7a3.8,3.8,0,0,0,1.219-.155,1.36,1.36,0,0,0,.675-.5,1.483,1.483,0,0,0,.236-.557,5.341,5.341,0,0,0,.071-1.038V.11h1.148v5.76a5.857,5.857,0,0,1-.2,1.684,2.159,2.159,0,0,1-.625,1.027,2.224,2.224,0,0,1-1.022.486,9.853,9.853,0,0,1-1.967.142H39.377Zm9.816-.11H48.071V.11H54.32a5.74,5.74,0,0,1,2.832.46,1.869,1.869,0,0,1,.688,1.678V3.425A1.858,1.858,0,0,1,57.157,5.1a5.823,5.823,0,0,1-2.837.454H49.188V9.1h0Zm0-4.563h5.45a3,3,0,0,0,1.61-.292,1.457,1.457,0,0,0,.4-1.219V2.6a1.452,1.452,0,0,0-.4-1.219,2.982,2.982,0,0,0-1.61-.292h-5.45V4.534h0ZM63.506,9.209a11.547,11.547,0,0,1-2.13-.142,2.615,2.615,0,0,1-1.124-.486,2.149,2.149,0,0,1-.7-1.014,5.277,5.277,0,0,1-.215-1.655V3.459a6.033,6.033,0,0,1,.213-1.786A2.094,2.094,0,0,1,60.238.63,2.64,2.64,0,0,1,61.371.147,11.379,11.379,0,0,1,63.493,0h3A11.392,11.392,0,0,1,68.62.147,2.673,2.673,0,0,1,69.752.63a2.1,2.1,0,0,1,.683,1.022,5.442,5.442,0,0,1,.218,1.7V5.858a5.426,5.426,0,0,1-.218,1.7,2.079,2.079,0,0,1-.683,1.019,2.556,2.556,0,0,1-1.114.486,11.6,11.6,0,0,1-2.141.142H63.509ZM67.028.99H62.962a4.627,4.627,0,0,0-1.34.15,1.449,1.449,0,0,0-.738.5,1.6,1.6,0,0,0-.273.6A5.881,5.881,0,0,0,60.533,3.4V5.76a5.863,5.863,0,0,0,.079,1.156,1.521,1.521,0,0,0,.273.6,1.454,1.454,0,0,0,.738.5,4.627,4.627,0,0,0,1.34.15h4.066a4.647,4.647,0,0,0,1.342-.15,1.449,1.449,0,0,0,.738-.5,1.6,1.6,0,0,0,.26-.578A4.994,4.994,0,0,0,69.448,5.9V3.26a4.972,4.972,0,0,0-.079-1.045,1.54,1.54,0,0,0-.26-.575,1.454,1.454,0,0,0-.738-.5,4.635,4.635,0,0,0-1.342-.15h0ZM79.613,9.1H78.528V.11h1.61l5.4,7.812L90.939.11H92.6V9.1H91.515V1.182L85.983,9.1h-.838L79.613,1.182V9.1Zm16.328,0H94.824V.11h1.116V9.1Zm6,.11a10.168,10.168,0,0,1-2.015-.142,2.363,2.363,0,0,1-1.04-.486,2.164,2.164,0,0,1-.649-1.009,5.586,5.586,0,0,1-.2-1.66V3.459a6.362,6.362,0,0,1,.2-1.786A2.171,2.171,0,0,1,98.891.63,2.369,2.369,0,0,1,99.949.144,10.158,10.158,0,0,1,101.935,0h2.832a5.582,5.582,0,0,1,2.971.546,2.278,2.278,0,0,1,.772,1.988c0,.123,0,.221-.005.289s-.005.131-.008.186h-1.027V2.882a1.919,1.919,0,0,0-.462-1.468,2.431,2.431,0,0,0-1.629-.42h-3.893a4.031,4.031,0,0,0-1.24.15,1.35,1.35,0,0,0-.693.5,1.624,1.624,0,0,0-.247.591,6.487,6.487,0,0,0-.071,1.153V5.776a6.466,6.466,0,0,0,.071,1.153,1.638,1.638,0,0,0,.247.594,1.365,1.365,0,0,0,.693.5,4.031,4.031,0,0,0,1.24.15h3.882a2.694,2.694,0,0,0,1.736-.41,1.92,1.92,0,0,0,.465-1.492V6.026H108.6c0,.055,0,.134.005.234s.005.168.005.215a4.375,4.375,0,0,1-.168,1.35,1.823,1.823,0,0,1-.549.825,2.167,2.167,0,0,1-1.014.439,12.381,12.381,0,0,1-2.112.129h-2.821Zm9.674-.11H110.5V.11h1.116V3.979h8.145V.11h1.116V9.1h-1.116V4.959H111.62V9.1Zm11.473,0V.11h8.852v1h-7.759V3.932h7.434v1h-7.434V8.1h7.759v1h-8.852Zm10.5,0V.11h1.116v8H141.7V9.1h-8.1Zm9.485,0V.11h1.116v8h6.987V9.1Z" fill="#848688"/>
      <g id="Grupo_546" data-name="Grupo 546">
        <path id="Trazado_6258" data-name="Trazado 6258" d="M0,22.272V15.093H2.642a5.7,5.7,0,0,1,.98.063,1.994,1.994,0,0,1,.6.21,1.593,1.593,0,0,1,.672.707,2.437,2.437,0,0,1,.234,1.1,2.264,2.264,0,0,1-.234,1.059,1.791,1.791,0,0,1-.683.73,1.771,1.771,0,0,1-.607.221,6.868,6.868,0,0,1-1.148.066H.975v3.026H0Zm.975-3.9H2.611A1.96,1.96,0,0,0,3.8,18.1a1.136,1.136,0,0,0,.339-.935,1.11,1.11,0,0,0-.336-.917,1.764,1.764,0,0,0-1.122-.278H.975Z" fill="#848688"/>
        <path id="Trazado_6259" data-name="Trazado 6259" d="M6.186,16.091v-1h.877v1Zm0,6.181V17.053h.877v5.219Z" fill="#848688"/>
        <path id="Trazado_6260" data-name="Trazado 6260" d="M11.917,20.586h.867a2.127,2.127,0,0,1-.751,1.361,2.35,2.35,0,0,1-1.534.5,2.145,2.145,0,0,1-1.715-.73,2.959,2.959,0,0,1-.628-1.994,3.157,3.157,0,0,1,.625-2.086,2.121,2.121,0,0,1,1.72-.751,2.242,2.242,0,0,1,1.742.691,2.849,2.849,0,0,1,.617,1.954v.239a.967.967,0,0,1-.013.152H9.081a1.931,1.931,0,0,0,.41,1.274,1.382,1.382,0,0,0,1.1.452,1.386,1.386,0,0,0,.885-.276,1.285,1.285,0,0,0,.452-.783Zm-2.847-1.4h2.866a1.619,1.619,0,0,0-.37-1.129,1.34,1.34,0,0,0-1.038-.4,1.336,1.336,0,0,0-1.022.389,1.807,1.807,0,0,0-.436,1.135Z" fill="#848688"/>
        <path id="Trazado_6261" data-name="Trazado 6261" d="M17.336,22.272V19.059A1.757,1.757,0,0,0,17.1,18a.983.983,0,0,0-.812-.294,1.52,1.52,0,0,0-1.143.418,1.627,1.627,0,0,0-.407,1.182v2.973h-.877V17.055H14.7v.759a1.878,1.878,0,0,1,1.678-.89,2.481,2.481,0,0,1,1,.179,1.355,1.355,0,0,1,.625.533,1.335,1.335,0,0,1,.176.447,4.31,4.31,0,0,1,.053.812v3.383h-.888Z" fill="#848688"/>
        <path id="Trazado_6262" data-name="Trazado 6262" d="M19.178,20.575h.843a1.11,1.11,0,0,0,.384.8,1.467,1.467,0,0,0,.948.273,1.582,1.582,0,0,0,.893-.221.693.693,0,0,0,.326-.607.581.581,0,0,0-.163-.441,1.448,1.448,0,0,0-.636-.265l-.98-.252a2.457,2.457,0,0,1-1.153-.528,1.278,1.278,0,0,1-.323-.938,1.313,1.313,0,0,1,.523-1.1,2.287,2.287,0,0,1,1.434-.407,2.359,2.359,0,0,1,1.481.433,1.4,1.4,0,0,1,.552,1.164v.018h-.854a.817.817,0,0,0-.339-.641,1.387,1.387,0,0,0-.841-.226,1.446,1.446,0,0,0-.806.186.612.612,0,0,0-.276.541.486.486,0,0,0,.173.4,1.694,1.694,0,0,0,.646.252l.848.2a2.707,2.707,0,0,1,1.248.549,1.272,1.272,0,0,1,.341.953,1.523,1.523,0,0,1-.573,1.266,2.539,2.539,0,0,1-1.6.452,2.221,2.221,0,0,1-1.542-.478,1.786,1.786,0,0,1-.554-1.379Z" fill="#848688"/>
        <path id="Trazado_6263" data-name="Trazado 6263" d="M27.717,21.576a2.88,2.88,0,0,1-.869.644,2.306,2.306,0,0,1-.977.215,1.76,1.76,0,0,1-1.248-.418,1.5,1.5,0,0,1-.449-1.153,1.416,1.416,0,0,1,.441-1.116,2.409,2.409,0,0,1,1.342-.523c.152-.016.36-.039.62-.068a4.06,4.06,0,0,0,.82-.131.356.356,0,0,0,.2-.152,1.1,1.1,0,0,0,.05-.412.68.68,0,0,0-.292-.6,1.567,1.567,0,0,0-.883-.2,1.491,1.491,0,0,0-.919.244.859.859,0,0,0-.31.722h-.827v-.039a1.533,1.533,0,0,1,.557-1.248,2.34,2.34,0,0,1,1.531-.457,2.477,2.477,0,0,1,1.542.391,1.467,1.467,0,0,1,.494,1.227v2.614a.815.815,0,0,0,.074.433.309.309,0,0,0,.263.1.428.428,0,0,0,.095-.008l.134-.021V22.3a2.2,2.2,0,0,1-.281.06,1.721,1.721,0,0,1-.226.016.98.98,0,0,1-.657-.189.724.724,0,0,1-.218-.575v-.029Zm-.084-1.96a3.726,3.726,0,0,1-1.2.3c-.2.026-.352.047-.454.063a1.282,1.282,0,0,0-.688.284.794.794,0,0,0-.21.594.745.745,0,0,0,.244.6,1.039,1.039,0,0,0,.7.21,1.831,1.831,0,0,0,1.161-.355,1.109,1.109,0,0,0,.454-.911v-.78Z" fill="#848688"/>
        <path id="Trazado_6264" data-name="Trazado 6264" d="M36.159,20.586h.867a2.127,2.127,0,0,1-.751,1.361,2.35,2.35,0,0,1-1.534.5,2.145,2.145,0,0,1-1.715-.73,2.959,2.959,0,0,1-.628-1.994,3.157,3.157,0,0,1,.625-2.086,2.12,2.12,0,0,1,1.72-.751,2.242,2.242,0,0,1,1.742.691,2.849,2.849,0,0,1,.617,1.954v.239a.966.966,0,0,1-.013.152H33.323a1.931,1.931,0,0,0,.41,1.274,1.556,1.556,0,0,0,1.981.176,1.285,1.285,0,0,0,.452-.783Zm-2.847-1.4h2.866a1.619,1.619,0,0,0-.37-1.129,1.546,1.546,0,0,0-2.059-.008,1.807,1.807,0,0,0-.436,1.135Z" fill="#848688"/>
        <path id="Trazado_6265" data-name="Trazado 6265" d="M41.578,22.272V19.059A1.758,1.758,0,0,0,41.342,18a.983.983,0,0,0-.812-.294,1.52,1.52,0,0,0-1.143.418A1.627,1.627,0,0,0,38.98,19.3v2.973H38.1V17.055h.838v.759a1.878,1.878,0,0,1,1.678-.89,2.481,2.481,0,0,1,1,.179,1.355,1.355,0,0,1,.625.533,1.335,1.335,0,0,1,.176.447,4.31,4.31,0,0,1,.053.812v3.383h-.888Z" fill="#848688"/>
        <path id="Trazado_6266" data-name="Trazado 6266" d="M45.818,22.272l2.666-7.179h1.077l2.677,7.179H51.179l-.759-2.143H47.593l-.764,2.143H45.82Zm2.075-2.984h2.238L49.02,16.12l-1.127,3.168Z" fill="#848688"/>
        <path id="Trazado_6267" data-name="Trazado 6267" d="M52.886,22.272V15.093h.893v7.179Z" fill="#848688"/>
        <path id="Trazado_6268" data-name="Trazado 6268" d="M55.15,24.358v-7.3h.859v.735a2.174,2.174,0,0,1,.733-.688,2,2,0,0,1,.967-.218,2.049,2.049,0,0,1,1.665.751A3.056,3.056,0,0,1,60,19.645a3.108,3.108,0,0,1-.628,2.033,2.061,2.061,0,0,1-1.668.756,2.229,2.229,0,0,1-.967-.2,1.947,1.947,0,0,1-.725-.6V24.36H55.15Zm.827-4.66a2.329,2.329,0,0,0,.389,1.466,1.394,1.394,0,0,0,1.164.489,1.31,1.31,0,0,0,1.143-.538,2.521,2.521,0,0,0,.4-1.529,2.157,2.157,0,0,0-.418-1.4,1.388,1.388,0,0,0-1.137-.512,1.364,1.364,0,0,0-1.14.525,2.45,2.45,0,0,0-.4,1.5Z" fill="#848688"/>
        <path id="Trazado_6269" data-name="Trazado 6269" d="M64.289,21.576a2.88,2.88,0,0,1-.869.644,2.306,2.306,0,0,1-.977.215,1.76,1.76,0,0,1-1.248-.418,1.5,1.5,0,0,1-.449-1.153,1.416,1.416,0,0,1,.441-1.116,2.409,2.409,0,0,1,1.342-.523c.152-.016.36-.039.62-.068a4.06,4.06,0,0,0,.82-.131.356.356,0,0,0,.2-.152,1.1,1.1,0,0,0,.05-.412.68.68,0,0,0-.292-.6,1.567,1.567,0,0,0-.883-.2,1.491,1.491,0,0,0-.919.244.859.859,0,0,0-.31.722h-.827v-.039a1.533,1.533,0,0,1,.557-1.248,2.34,2.34,0,0,1,1.531-.457,2.477,2.477,0,0,1,1.542.391,1.467,1.467,0,0,1,.494,1.227v2.614a.815.815,0,0,0,.074.433.309.309,0,0,0,.263.1.428.428,0,0,0,.095-.008l.134-.021V22.3a2.2,2.2,0,0,1-.281.06,1.721,1.721,0,0,1-.226.016.98.98,0,0,1-.657-.189.724.724,0,0,1-.218-.575v-.029Zm-.084-1.96a3.726,3.726,0,0,1-1.2.3c-.2.026-.352.047-.454.063a1.282,1.282,0,0,0-.688.284.794.794,0,0,0-.21.594.745.745,0,0,0,.244.6,1.039,1.039,0,0,0,.7.21,1.831,1.831,0,0,0,1.161-.355A1.109,1.109,0,0,0,64.2,20.4v-.78Z" fill="#848688"/>
        <path id="Trazado_6270" data-name="Trazado 6270" d="M69.949,18.786a1.13,1.13,0,0,0-.389-.827,1.436,1.436,0,0,0-.953-.289,1.292,1.292,0,0,0-1.1.512,2.39,2.39,0,0,0-.389,1.463,2.479,2.479,0,0,0,.373,1.471,1.229,1.229,0,0,0,1.056.517,1.449,1.449,0,0,0,.982-.318,1.432,1.432,0,0,0,.454-.922h.838a2.1,2.1,0,0,1-.678,1.5,2.378,2.378,0,0,1-1.636.538,2.108,2.108,0,0,1-1.684-.735,3.068,3.068,0,0,1-.612-2.017,3.09,3.09,0,0,1,.638-2.054,2.189,2.189,0,0,1,1.755-.743,2.31,2.31,0,0,1,1.576.515,1.871,1.871,0,0,1,.63,1.392h-.867Z" fill="#848688"/>
        <path id="Trazado_6271" data-name="Trazado 6271" d="M74.948,21.576a2.88,2.88,0,0,1-.869.644,2.306,2.306,0,0,1-.977.215,1.76,1.76,0,0,1-1.248-.418,1.5,1.5,0,0,1-.449-1.153,1.416,1.416,0,0,1,.441-1.116,2.409,2.409,0,0,1,1.342-.523c.152-.016.36-.039.62-.068a4.06,4.06,0,0,0,.82-.131.356.356,0,0,0,.2-.152,1.1,1.1,0,0,0,.05-.412.68.68,0,0,0-.292-.6,1.567,1.567,0,0,0-.883-.2,1.491,1.491,0,0,0-.919.244.859.859,0,0,0-.31.722h-.827v-.039a1.533,1.533,0,0,1,.557-1.248,2.34,2.34,0,0,1,1.531-.457,2.477,2.477,0,0,1,1.542.391A1.467,1.467,0,0,1,75.77,18.5v2.614a.815.815,0,0,0,.074.433.309.309,0,0,0,.263.1.428.428,0,0,0,.095-.008l.134-.021V22.3a2.2,2.2,0,0,1-.281.06,1.721,1.721,0,0,1-.226.016.98.98,0,0,1-.657-.189.724.724,0,0,1-.218-.575v-.029Zm-.084-1.96a3.726,3.726,0,0,1-1.2.3c-.2.026-.352.047-.454.063a1.282,1.282,0,0,0-.688.284.794.794,0,0,0-.21.594.745.745,0,0,0,.244.6,1.039,1.039,0,0,0,.7.21,1.831,1.831,0,0,0,1.161-.355,1.109,1.109,0,0,0,.454-.911v-.78Z" fill="#848688"/>
        <path id="Trazado_6272" data-name="Trazado 6272" d="M77.341,22.272V21.184h1v1.087Z" fill="#848688"/>
        <path id="Trazado_6273" data-name="Trazado 6273" d="M80.075,22.272V21.184h1v1.087Z" fill="#848688"/>
        <path id="Trazado_6274" data-name="Trazado 6274" d="M82.81,22.272V21.184h1v1.087Z" fill="#848688"/>
        <path id="Trazado_6275" data-name="Trazado 6275" d="M85.447,22.272V15.093h2.642a5.7,5.7,0,0,1,.98.063,1.994,1.994,0,0,1,.6.21,1.593,1.593,0,0,1,.672.707,2.437,2.437,0,0,1,.234,1.1,2.264,2.264,0,0,1-.234,1.059,1.791,1.791,0,0,1-.683.73,1.771,1.771,0,0,1-.607.221,6.868,6.868,0,0,1-1.148.066H86.422v3.026h-.975Zm.975-3.9h1.636a1.96,1.96,0,0,0,1.193-.273,1.136,1.136,0,0,0,.339-.935,1.11,1.11,0,0,0-.336-.917,1.764,1.764,0,0,0-1.122-.278h-1.71v2.4Z" fill="#848688"/>
        <path id="Trazado_6276" data-name="Trazado 6276" d="M91.633,16.091v-1h.877v1Zm0,6.181V17.053h.877v5.219Z" fill="#848688"/>
        <path id="Trazado_6277" data-name="Trazado 6277" d="M97.364,20.586h.867a2.127,2.127,0,0,1-.751,1.361,2.35,2.35,0,0,1-1.534.5,2.145,2.145,0,0,1-1.715-.73,2.959,2.959,0,0,1-.628-1.994,3.157,3.157,0,0,1,.625-2.086,2.12,2.12,0,0,1,1.72-.751,2.242,2.242,0,0,1,1.742.691,2.849,2.849,0,0,1,.617,1.954v.239a.967.967,0,0,1-.013.152H94.528a1.931,1.931,0,0,0,.41,1.274,1.556,1.556,0,0,0,1.981.176,1.285,1.285,0,0,0,.452-.783Zm-2.847-1.4h2.866a1.619,1.619,0,0,0-.37-1.129,1.546,1.546,0,0,0-2.059-.008,1.807,1.807,0,0,0-.436,1.135Z" fill="#848688"/>
        <path id="Trazado_6278" data-name="Trazado 6278" d="M102.783,22.272V19.059A1.757,1.757,0,0,0,102.547,18a.983.983,0,0,0-.812-.294,1.52,1.52,0,0,0-1.143.418,1.627,1.627,0,0,0-.407,1.182v2.973h-.877V17.055h.838v.759a1.878,1.878,0,0,1,1.678-.89,2.481,2.481,0,0,1,1,.179,1.355,1.355,0,0,1,.625.533,1.335,1.335,0,0,1,.176.447,4.309,4.309,0,0,1,.053.812v3.383h-.888Z" fill="#848688"/>
        <path id="Trazado_6279" data-name="Trazado 6279" d="M104.625,20.575h.843a1.11,1.11,0,0,0,.383.8,1.467,1.467,0,0,0,.948.273,1.582,1.582,0,0,0,.893-.221.693.693,0,0,0,.326-.607.581.581,0,0,0-.163-.441,1.448,1.448,0,0,0-.636-.265l-.98-.252a2.457,2.457,0,0,1-1.153-.528,1.278,1.278,0,0,1-.323-.938,1.313,1.313,0,0,1,.523-1.1,2.287,2.287,0,0,1,1.434-.407,2.359,2.359,0,0,1,1.481.433,1.4,1.4,0,0,1,.552,1.164v.018H107.9a.817.817,0,0,0-.339-.641,1.387,1.387,0,0,0-.841-.226,1.446,1.446,0,0,0-.806.186.612.612,0,0,0-.276.541.486.486,0,0,0,.173.4,1.694,1.694,0,0,0,.646.252l.848.2a2.707,2.707,0,0,1,1.248.549,1.272,1.272,0,0,1,.341.953,1.523,1.523,0,0,1-.573,1.266,2.539,2.539,0,0,1-1.6.452,2.221,2.221,0,0,1-1.542-.478,1.786,1.786,0,0,1-.554-1.379Z" fill="#848688"/>
        <path id="Trazado_6280" data-name="Trazado 6280" d="M113.164,21.576a2.88,2.88,0,0,1-.869.644,2.306,2.306,0,0,1-.977.215,1.76,1.76,0,0,1-1.248-.418,1.5,1.5,0,0,1-.449-1.153,1.416,1.416,0,0,1,.441-1.116,2.409,2.409,0,0,1,1.342-.523c.152-.016.36-.039.62-.068a4.06,4.06,0,0,0,.82-.131.356.356,0,0,0,.2-.152,1.1,1.1,0,0,0,.05-.412.68.68,0,0,0-.292-.6,1.567,1.567,0,0,0-.883-.2,1.491,1.491,0,0,0-.919.244.859.859,0,0,0-.31.722h-.827v-.039a1.533,1.533,0,0,1,.557-1.248,2.34,2.34,0,0,1,1.531-.457,2.477,2.477,0,0,1,1.542.391,1.467,1.467,0,0,1,.494,1.227v2.614a.815.815,0,0,0,.074.433.309.309,0,0,0,.263.1.428.428,0,0,0,.095-.008l.134-.021V22.3a2.2,2.2,0,0,1-.281.06,1.721,1.721,0,0,1-.226.016.98.98,0,0,1-.657-.189.724.724,0,0,1-.218-.575v-.029Zm-.084-1.96a3.726,3.726,0,0,1-1.2.3c-.2.026-.352.047-.454.063a1.282,1.282,0,0,0-.688.284.794.794,0,0,0-.21.594.745.745,0,0,0,.244.6,1.039,1.039,0,0,0,.7.21,1.831,1.831,0,0,0,1.161-.355,1.109,1.109,0,0,0,.454-.911v-.78Z" fill="#848688"/>
        <path id="Trazado_6281" data-name="Trazado 6281" d="M121.606,20.586h.867a2.127,2.127,0,0,1-.751,1.361,2.35,2.35,0,0,1-1.534.5,2.145,2.145,0,0,1-1.715-.73,2.959,2.959,0,0,1-.628-1.994,3.157,3.157,0,0,1,.625-2.086,2.12,2.12,0,0,1,1.72-.751,2.242,2.242,0,0,1,1.742.691,2.849,2.849,0,0,1,.617,1.954v.239a.966.966,0,0,1-.013.152H118.77a1.931,1.931,0,0,0,.41,1.274,1.556,1.556,0,0,0,1.981.176,1.285,1.285,0,0,0,.452-.783Zm-2.847-1.4h2.866a1.619,1.619,0,0,0-.37-1.129,1.546,1.546,0,0,0-2.059-.008,1.807,1.807,0,0,0-.436,1.135Z" fill="#848688"/>
        <path id="Trazado_6282" data-name="Trazado 6282" d="M127.025,22.272V19.059A1.758,1.758,0,0,0,126.789,18a.983.983,0,0,0-.812-.294,1.52,1.52,0,0,0-1.143.418,1.627,1.627,0,0,0-.407,1.182v2.973h-.877V17.055h.838v.759a1.878,1.878,0,0,1,1.678-.89,2.481,2.481,0,0,1,1,.179,1.355,1.355,0,0,1,.625.533,1.335,1.335,0,0,1,.176.447,4.31,4.31,0,0,1,.053.812v3.383h-.888Z" fill="#848688"/>
        <path id="Trazado_6283" data-name="Trazado 6283" d="M132.812,16.154v6.118h-.746V15.093h1.158l1.479,5.492c.042.155.076.276.095.362s.037.163.047.226c.021-.121.042-.229.066-.32s.045-.184.068-.268l1.531-5.492h1.164v7.179h-.785V16.154c-.018.105-.039.208-.066.315s-.05.21-.076.315l-1.537,5.487h-.767l-1.5-5.487c-.026-.092-.053-.189-.074-.292s-.042-.215-.06-.336Z" fill="#848688"/>
        <path id="Trazado_6284" data-name="Trazado 6284" d="M140.248,16.091v-1h.877v1Zm0,6.181V17.053h.877v5.219Z" fill="#848688"/>
        <path id="Trazado_6285" data-name="Trazado 6285" d="M145.93,18.786a1.13,1.13,0,0,0-.389-.827,1.436,1.436,0,0,0-.954-.289,1.292,1.292,0,0,0-1.1.512,2.39,2.39,0,0,0-.389,1.463,2.479,2.479,0,0,0,.373,1.471,1.229,1.229,0,0,0,1.056.517,1.449,1.449,0,0,0,.982-.318,1.432,1.432,0,0,0,.454-.922h.838a2.1,2.1,0,0,1-.678,1.5,2.378,2.378,0,0,1-1.636.538,2.108,2.108,0,0,1-1.684-.735,3.068,3.068,0,0,1-.612-2.017,3.09,3.09,0,0,1,.638-2.054,2.189,2.189,0,0,1,1.755-.743,2.31,2.31,0,0,1,1.576.515,1.871,1.871,0,0,1,.63,1.392h-.867Z" fill="#848688"/>
        <path id="Trazado_6286" data-name="Trazado 6286" d="M151.181,22.272V19.059a1.756,1.756,0,0,0-.236-1.066.991.991,0,0,0-.812-.292,1.559,1.559,0,0,0-1.129.4,1.438,1.438,0,0,0-.42,1.085v3.086h-.877V15.1h.877v2.7a1.6,1.6,0,0,1,.657-.646,2.073,2.073,0,0,1,.98-.221,2.481,2.481,0,0,1,1,.179,1.355,1.355,0,0,1,.625.533,1.335,1.335,0,0,1,.176.447,4.31,4.31,0,0,1,.053.812v3.383h-.888Z" fill="#848688"/>
        <path id="Trazado_6287" data-name="Trazado 6287" d="M156.9,20.586h.867a2.127,2.127,0,0,1-.751,1.361,2.35,2.35,0,0,1-1.534.5,2.145,2.145,0,0,1-1.715-.73,2.959,2.959,0,0,1-.628-1.994,3.157,3.157,0,0,1,.625-2.086,2.121,2.121,0,0,1,1.72-.751,2.242,2.242,0,0,1,1.742.691,2.849,2.849,0,0,1,.617,1.954v.239a.967.967,0,0,1-.013.152h-3.767a1.931,1.931,0,0,0,.41,1.274,1.556,1.556,0,0,0,1.981.176,1.285,1.285,0,0,0,.452-.783Zm-2.847-1.4h2.866a1.619,1.619,0,0,0-.37-1.129,1.546,1.546,0,0,0-2.059-.008,1.807,1.807,0,0,0-.436,1.135Z" fill="#848688"/>
        <path id="Trazado_6288" data-name="Trazado 6288" d="M158.851,22.272V15.093h.893v7.179Z" fill="#848688"/>
        <path id="Trazado_6289" data-name="Trazado 6289" d="M161.107,22.272V15.093H162v7.179Z" fill="#848688"/>
      </g>
    </g>
  </g>
</svg>
