<svg xmlns="http://www.w3.org/2000/svg" width="10.955" height="20.413" viewBox="0 0 10.955 20.413">
  <path id="arrow-right" d="M1.156,20.413a.686.686,0,0,1-.489-.2.64.64,0,0,1-.21-.478.652.652,0,0,1,.2-.479l9.119-9.119L.8,1.177a.823.823,0,0,1-.17-.32.622.622,0,0,1,0-.349A.833.833,0,0,1,.8.2.663.663,0,0,1,1.285,0a.663.663,0,0,1,.489.2l9.438,9.458a.655.655,0,0,1,.15.229.716.716,0,0,1,.05.259.638.638,0,0,1-.05.249.688.688,0,0,1-.15.22l-9.578,9.6a.655.655,0,0,1-.229.15A.691.691,0,0,1,1.156,20.413Z" transform="translate(-0.457)" fill="#878383"/>
</svg>
