<?xml version="1.0" standalone="no"?>
<!DOCTYPE svg PUBLIC "-//W3C//DTD SVG 1.1//EN" "http://www.w3.org/Graphics/SVG/1.1/DTD/svg11.dtd" >
<svg xmlns="http://www.w3.org/2000/svg" xmlns:xlink="http://www.w3.org/1999/xlink" version="1.1">
<metadata></metadata>
<defs>
<font id="swis721_wgl4_btitalic" horiz-adv-x="1024" >
<font-face units-per-em="2048" ascent="1556" descent="-492" />
<missing-glyph horiz-adv-x="561" />
<glyph horiz-adv-x="0" />
<glyph unicode="&#xd;" horiz-adv-x="561" />
<glyph unicode=" "  horiz-adv-x="561" />
<glyph unicode="&#x09;" horiz-adv-x="561" />
<glyph unicode="&#xa0;" horiz-adv-x="561" />
<glyph unicode="!" horiz-adv-x="657" d="M72 0l47 223h221l-51 -223h-217zM195 373l186 1100h203l-277 -1100h-112z" />
<glyph unicode="&#x22;" horiz-adv-x="614" d="M90 881v555h139v-555h-139zM385 881v555h139v-555h-139z" />
<glyph unicode="#" horiz-adv-x="1575" d="M88 449l53 147h310l92 262h-330l51 146h332l162 454h166l-162 -454h256l164 454h164l-160 -454h301l-51 -146h-303l-93 -262h322l-51 -147h-322l-162 -453h-165l161 453h-258l-162 -453h-165l159 453h-309zM614 596h265l90 262h-260z" />
<glyph unicode="$" horiz-adv-x="1124" d="M14 391v25h178q2 -124 47.5 -194t135.5 -87l112 512q-166 62 -239.5 153t-73.5 234q0 171 130 284.5t333 113.5h22l23 114h104l-26 -123q151 -24 229 -115.5t78 -242.5v-29l-172 1q-5 104 -45.5 159.5t-124.5 73.5l-102 -477q191 -71 268.5 -156t77.5 -221 q0 -208 -141 -329.5t-385 -123.5l-35 -162h-107l39 174q-161 39 -243.5 144.5t-82.5 271.5zM365 1022q0 -69 38.5 -114t124.5 -77l97 447h-9q-113 0 -182 -70.5t-69 -185.5zM477 123h27q121 0 195.5 72t74.5 188q0 84 -44 135.5t-148 89.5z" />
<glyph unicode="%" horiz-adv-x="1731" d="M72 1036q0 149 102.5 252t251.5 103q147 0 250.5 -104t103.5 -251t-103.5 -251.5t-250.5 -104.5q-149 0 -251.5 103.5t-102.5 252.5zM221 1036q0 -87 59 -146t146 -59q85 0 145 60t60 145q0 86 -60 145.5t-145 59.5q-86 0 -145.5 -59.5t-59.5 -145.5zM365 -41l876 1473 h125l-877 -1473h-124zM948 356q0 149 103 252t252 103q146 0 251 -104t105 -251t-104.5 -251.5t-251.5 -104.5q-149 0 -252 103.5t-103 252.5zM1098 356q0 -87 59 -146.5t146 -59.5q84 0 144 60.5t60 145.5q0 86 -59.5 145.5t-144.5 59.5q-86 0 -145.5 -59.5t-59.5 -145.5z " />
<glyph unicode="&#x26;" horiz-adv-x="1362" d="M25 373q0 162 98 281t311 214l-37 72q-45 85 -62.5 139.5t-17.5 106.5q0 135 96.5 218t254.5 83q145 0 231 -80.5t86 -216.5q0 -119 -74.5 -211.5t-236.5 -175.5l246 -412q44 60 72.5 126t41.5 142h168q-15 -126 -63.5 -229.5t-130.5 -185.5l145 -244h-213l-70 117 q-97 -79 -202.5 -118.5t-218.5 -39.5q-184 0 -304 116.5t-120 297.5zM209 391q0 -119 72.5 -192.5t191.5 -73.5q82 0 162 32.5t158 98.5l-281 477q-170 -84 -236.5 -160.5t-66.5 -181.5zM494 1184q0 -30 13 -70.5t38 -85.5l49 -90q116 62 166.5 120.5t50.5 129.5 q0 73 -41 112t-119 39q-73 0 -115 -41.5t-42 -113.5z" />
<glyph unicode="'" horiz-adv-x="317" d="M90 881v555h139v-555h-139z" />
<glyph unicode="(" horiz-adv-x="688" d="M131 334q0 300 133 578t410 558h139q-264 -314 -384 -611t-120 -632q0 -160 27 -325t82 -338h-111q-88 203 -132 394.5t-44 375.5z" />
<glyph unicode=")" horiz-adv-x="688" d="M-203 -436q263 313 383.5 611t120.5 634q0 160 -27 325t-81 339h110q87 -201 130.5 -393.5t43.5 -379.5q0 -301 -132 -579t-408 -557h-140z" />
<glyph unicode="*" d="M178 1114l53 158l275 -94v295h151v-295l275 94l55 -158l-289 -78l197 -243l-135 -101l-178 258l-174 -252l-140 93l197 245z" />
<glyph unicode="+" horiz-adv-x="1706" d="M254 541v139h528v541h142v-541h528v-139h-528v-541h-142v541h-528z" />
<glyph unicode="," horiz-adv-x="561" d="M-27 -317l21 98q62 21 99 74t54 145h-106l45 219h221l-45 -219q-29 -139 -100.5 -217.5t-188.5 -99.5z" />
<glyph unicode="-" horiz-adv-x="639" d="M18 461l37 162h494l-37 -162h-494z" />
<glyph unicode="." horiz-adv-x="561" d="M31 0l47 221h221l-45 -221h-223z" />
<glyph unicode="/" horiz-adv-x="616" d="M-2 -190l494 1701h126l-497 -1701h-123z" />
<glyph unicode="0" horiz-adv-x="1124" d="M47 489q0 200 59.5 390t167.5 338q77 105 176 160t214 55q198 0 305.5 -132.5t107.5 -377.5q0 -185 -53.5 -371.5t-151.5 -339.5q-79 -125 -182.5 -188.5t-226.5 -63.5q-204 0 -310 135t-106 395zM238 457q0 -168 57.5 -252t173.5 -84q77 0 140 46.5t114 139.5 q75 137 117.5 304.5t42.5 324.5q0 168 -56.5 252t-169.5 84q-81 0 -147.5 -51t-118.5 -154q-74 -146 -113.5 -303t-39.5 -307z" />
<glyph unicode="1" horiz-adv-x="1124" d="M234 1028l30 135q201 7 319 71.5t173 197.5h129l-305 -1432h-181l230 1081q-77 -23 -175 -36.5t-220 -16.5z" />
<glyph unicode="2" horiz-adv-x="1124" d="M6 0q11 118 49.5 210t106.5 163q89 93 326 242l5 3l6 4q353 221 353 410q0 109 -61.5 171.5t-167.5 62.5q-136 0 -210.5 -76t-95.5 -234h-190q29 233 155 354.5t339 121.5q194 0 310 -107.5t116 -286.5q0 -147 -79.5 -259t-283.5 -240q-34 -22 -98 -61 q-307 -188 -359 -316h709l-33 -162h-897z" />
<glyph unicode="3" horiz-adv-x="1124" d="M29 352q0 26 1.5 54.5t4.5 58.5h188q-4 -23 -6 -47.5t-2 -50.5q0 -120 62.5 -182t183.5 -62q147 0 234 87.5t87 235.5q0 103 -70 158t-200 55q-22 0 -33 -0.5t-20 -0.5l33 151q11 -1 24.5 -1.5t38.5 -0.5q150 0 230.5 65t80.5 187q0 98 -62.5 155.5t-170.5 57.5 q-123 0 -194 -70.5t-93 -212.5h-186q29 214 153.5 328.5t327.5 114.5q189 0 300.5 -99t111.5 -266q0 -120 -59.5 -207.5t-174.5 -136.5q77 -48 115.5 -119t38.5 -166q0 -211 -143 -345t-369 -134q-206 0 -319 103.5t-113 289.5z" />
<glyph unicode="4" horiz-adv-x="1124" d="M-4 358l37 156l815 877h158l-187 -877h205l-33 -156h-207l-75 -358h-181l76 358h-608zM217 514h422l129 604z" />
<glyph unicode="5" horiz-adv-x="1124" d="M43 371v30h176v-22q0 -123 62.5 -188.5t179.5 -65.5q159 0 254.5 109t95.5 292q0 135 -63.5 203t-190.5 68q-98 0 -169 -39t-109 -113h-170l221 746h725l-33 -160h-573l-109 -367q49 44 115 66t151 22q180 0 286.5 -115t106.5 -309q0 -249 -153.5 -410t-390.5 -161 q-193 0 -302.5 110t-109.5 304z" />
<glyph unicode="6" horiz-adv-x="1124" d="M70 469q0 207 58.5 405.5t158.5 335.5q80 109 192.5 166.5t247.5 57.5q175 0 269 -96.5t94 -274.5v-23h-181q0 118 -49 175t-149 57q-145 0 -246.5 -115t-161.5 -348q72 67 154 100t178 33q175 0 279 -111t104 -299q0 -255 -144.5 -413t-379.5 -158q-204 0 -314 132 t-110 376zM256 406q0 -143 65.5 -220t186.5 -77q136 0 227.5 115.5t91.5 289.5q0 129 -66.5 201.5t-182.5 72.5q-141 0 -231.5 -107t-90.5 -275z" />
<glyph unicode="7" horiz-adv-x="1124" d="M154 1225l36 166h949l-31 -152q-334 -348 -508.5 -650t-210.5 -589h-207q38 287 208.5 582t502.5 643h-739z" />
<glyph unicode="8" horiz-adv-x="1124" d="M39 350q0 145 72.5 251t214.5 167q-71 43 -106.5 106.5t-35.5 147.5q0 174 129 288.5t328 114.5q185 0 296.5 -95.5t111.5 -252.5q0 -115 -59.5 -201t-168.5 -131q79 -50 118.5 -125t39.5 -171q0 -211 -144 -348.5t-368 -137.5q-200 0 -314 103.5t-114 283.5zM231 360 q0 -118 63.5 -180.5t184.5 -62.5q134 0 220.5 93t86.5 234q0 107 -65 167.5t-182 60.5q-136 0 -222 -87t-86 -225zM369 1030q0 -98 60 -152.5t169 -54.5q117 0 190.5 67.5t73.5 172.5q0 95 -61 151t-164 56q-122 0 -195 -65.5t-73 -174.5z" />
<glyph unicode="9" horiz-adv-x="1124" d="M33 328v22h180q0 -118 48 -174.5t149 -56.5q145 0 247 115t162 348q-71 -67 -154 -100t-180 -33q-175 0 -278 111t-103 298q0 255 145 413.5t380 158.5q201 0 312.5 -133.5t111.5 -376.5q0 -206 -59 -405.5t-158 -334.5q-80 -109 -193 -166t-248 -57q-175 0 -268.5 96 t-93.5 275zM295 879q0 -131 65.5 -204t182.5 -73q141 0 232 107.5t91 277.5q0 140 -66.5 217.5t-187.5 77.5q-136 0 -226.5 -115t-90.5 -288z" />
<glyph unicode=":" horiz-adv-x="608" d="M55 0l47 221h222l-48 -221h-221zM229 819l47 221h222l-47 -221h-222z" />
<glyph unicode=";" horiz-adv-x="608" d="M-14 -317l22 98q62 21 99.5 74t54.5 145h-109l45 219h224l-48 -219q-29 -139 -100.5 -217.5t-187.5 -99.5zM227 819l47 221h222l-45 -221h-224z" />
<glyph unicode="&#x3c;" horiz-adv-x="1706" d="M264 547v129l1178 483v-153l-969 -396l969 -393v-154z" />
<glyph unicode="=" horiz-adv-x="1706" d="M254 342v139h1198v-139h-1198zM254 739v140h1198v-140h-1198z" />
<glyph unicode="&#x3e;" horiz-adv-x="1706" d="M264 63v154l971 393l-971 396v153l1178 -483v-129z" />
<glyph unicode="?" horiz-adv-x="1075" d="M137 1018q14 217 139.5 340t333.5 123q197 0 313.5 -101.5t116.5 -271.5q0 -121 -57.5 -217t-183.5 -184q-32 -23 -92 -60q-108 -67 -140 -108q-21 -27 -34.5 -66.5t-22.5 -97.5h-170q8 114 54.5 199t140.5 153q34 25 113.5 78t105.5 80q47 50 69.5 103t22.5 114 q0 103 -64 161t-178 58q-122 0 -197 -78.5t-92 -224.5h-178zM260 0l45 213h207l-43 -213h-209z" />
<glyph unicode="@" horiz-adv-x="2048" d="M106 522q0 165 52 313t151 269q146 178 351.5 270t455.5 92q163 0 310 -45t253 -127q130 -100 197.5 -231t67.5 -283q0 -175 -63.5 -315t-184.5 -236q-68 -54 -149.5 -83t-166.5 -29q-99 0 -149.5 39.5t-50.5 117.5v19q-55 -89 -129 -131.5t-172 -42.5q-153 0 -233.5 85 t-80.5 247q0 235 138 394t339 159q85 0 145.5 -37.5t96.5 -112.5l57 115h132l-146 -576q-4 -16 -6 -31t-2 -28q0 -46 25.5 -70t74.5 -24q48 0 102.5 26.5t106.5 75.5q80 76 125 186.5t45 233.5q0 259 -190.5 420t-499.5 161q-133 0 -246 -28t-211 -86q-191 -114 -296 -299.5 t-105 -409.5q0 -177 61.5 -308t192.5 -230q100 -77 236.5 -118.5t287.5 -41.5q169 0 328.5 49t292.5 141l55 -82q-148 -111 -314.5 -167t-349.5 -56q-190 0 -348 47t-280 140q-154 118 -230 274t-76 354zM725 446q0 -105 48.5 -162t137.5 -57q97 0 174.5 69t104.5 179 l59 236q-17 88 -68.5 136t-129.5 48q-138 0 -232 -130t-94 -319z" />
<glyph unicode="A" horiz-adv-x="1237" d="M-150 0l793 1473h246l246 -1473h-199l-66 416h-587l-220 -416h-213zM373 588h469l-107 682z" />
<glyph unicode="B" horiz-adv-x="1376" d="M4 0l311 1473h549q211 0 319.5 -90.5t108.5 -266.5q0 -130 -63 -220t-182 -130q95 -43 141.5 -117.5t46.5 -183.5q0 -77 -22.5 -148t-65.5 -131q-70 -99 -171 -142.5t-271 -43.5h-701zM229 174h359q159 0 218 10t99 35q60 38 94.5 103.5t34.5 142.5q0 116 -68.5 164.5 t-240.5 48.5h-389zM373 842h342q198 0 289.5 61.5t91.5 194.5q0 109 -60 155.5t-207 46.5h-360z" />
<glyph unicode="C" horiz-adv-x="1448" d="M88 590q0 174 50.5 333t146.5 289q105 144 249.5 217.5t321.5 73.5q247 0 389 -136t156 -386h-197q-7 164 -103.5 254t-264.5 90q-127 0 -227.5 -57t-174.5 -170q-73 -113 -110 -241t-37 -265q0 -228 101 -347.5t294 -119.5q157 0 272.5 100.5t184.5 298.5h188 q-57 -263 -237.5 -416t-432.5 -153q-269 0 -419 167.5t-150 467.5z" />
<glyph unicode="D" horiz-adv-x="1460" d="M4 0l315 1473h420q325 0 474 -146.5t149 -464.5q0 -186 -50 -345.5t-143 -274.5q-41 -53 -91.5 -95t-110.5 -75q-71 -39 -158.5 -55.5t-253.5 -16.5h-551zM236 166h282q196 0 296.5 38.5t170.5 131.5q81 105 122.5 240.5t41.5 293.5q0 234 -100 334.5t-336 100.5h-234z " />
<glyph unicode="E" horiz-adv-x="1204" d="M4 0l311 1473h891l-39 -181h-696l-94 -446h674l-37 -174h-674l-107 -492h752l-39 -180h-942z" />
<glyph unicode="F" horiz-adv-x="1104" d="M4 0l309 1473h848l-37 -179h-651l-96 -448h629l-39 -180h-627l-143 -666h-193z" />
<glyph unicode="G" horiz-adv-x="1542" d="M90 596q0 193 60 366t172 304q104 119 242 181t300 62q263 0 411.5 -131.5t162.5 -376.5h-197q-11 161 -110.5 247.5t-272.5 86.5q-128 0 -229 -54t-183 -167q-74 -102 -115.5 -241.5t-41.5 -284.5q0 -219 111 -338t315 -119q181 0 310 123t185 348h-462l32 160h654 l-160 -762h-152l13 158q-92 -100 -207.5 -149.5t-255.5 -49.5q-276 0 -429 167.5t-153 469.5z" />
<glyph unicode="H" horiz-adv-x="1434" d="M4 0l311 1473h197l-129 -605h725l127 605h195l-314 -1473h-194l147 696h-723l-149 -696h-193z" />
<glyph unicode="I" horiz-adv-x="532" d="M8 0l311 1473h205l-313 -1473h-203z" />
<glyph unicode="J" horiz-adv-x="1012" d="M-47 287q0 39 5.5 87.5t16.5 104.5h193q-14 -54 -20.5 -97.5t-6.5 -78.5q0 -82 43.5 -125t126.5 -43q116 0 178 72.5t107 281.5l209 984h196l-227 -1061q-51 -243 -160.5 -349t-304.5 -106q-167 0 -261.5 87.5t-94.5 242.5z" />
<glyph unicode="K" horiz-adv-x="1266" d="M8 0l316 1473h192l-156 -744l770 744h248l-637 -607l443 -866h-205l-377 739l-299 -274l-100 -465h-195z" />
<glyph unicode="L" horiz-adv-x="1139" d="M8 0l311 1473h195l-272 -1291h764l-39 -182h-959z" />
<glyph unicode="M" horiz-adv-x="1726" d="M4 0l311 1473h283l162 -1217l667 1217h295l-313 -1473h-184l239 1124q11 47 22 83t25 67l-704 -1274h-189l-174 1292v-22q0 -25 -2.5 -51t-7.5 -56l-241 -1163h-189z" />
<glyph unicode="N" horiz-adv-x="1432" d="M4 0l311 1473h193l481 -1162l246 1162h192l-311 -1473h-188l-486 1153l-245 -1153h-193z" />
<glyph unicode="O" horiz-adv-x="1571" d="M80 584q0 184 64.5 361.5t181.5 314.5q104 122 247.5 186.5t311.5 64.5q280 0 440 -168.5t160 -463.5q0 -186 -66 -363t-186 -315q-101 -117 -244 -179.5t-309 -62.5q-279 0 -439.5 167.5t-160.5 457.5zM281 588q0 -214 110.5 -335.5t304.5 -121.5q111 0 210.5 46 t174.5 132q96 112 148.5 264.5t52.5 321.5q0 204 -112.5 324t-303.5 120q-116 0 -219 -50.5t-180 -145.5q-87 -108 -136.5 -256.5t-49.5 -298.5z" />
<glyph unicode="P" horiz-adv-x="1260" d="M4 0l313 1473h490q201 0 306.5 -99t105.5 -287q0 -233 -145 -352t-429 -119h-313l-133 -616h-195zM369 786h290q191 0 279 71.5t88 225.5q0 116 -60 169t-192 53h-295z" />
<glyph unicode="Q" horiz-adv-x="1571" d="M78 580q0 186 64 364t180 313q104 123 248 188.5t309 65.5q283 0 443.5 -171.5t160.5 -473.5q0 -244 -100.5 -448t-284.5 -336l155 -170l-120 -109l-187 203q-74 -24 -137 -35.5t-117 -11.5q-295 0 -454.5 161.5t-159.5 459.5zM276 573q0 -213 104.5 -328.5t297.5 -115.5 q25 0 59.5 4t81.5 12l-119 129l121 109l156 -170q143 98 223 271.5t80 383.5q0 219 -111 343t-307 124q-117 0 -219.5 -50.5t-179.5 -145.5q-88 -110 -137.5 -259.5t-49.5 -306.5z" />
<glyph unicode="R" horiz-adv-x="1356" d="M4 0l315 1473h504q123 0 187.5 -15t115.5 -49q73 -48 111.5 -125.5t38.5 -175.5q0 -147 -67.5 -249.5t-196.5 -149.5q60 -32 85 -80.5t25 -136.5q0 -28 -0.5 -43t-1.5 -28l-8 -147q-2 -30 -3 -52t-1 -40q0 -63 9.5 -94t31.5 -49v-39h-233q-10 27 -14.5 53.5t-4.5 55.5 q0 18 1.5 47t4.5 67l12 166q1 10 2 22t1 33q0 114 -53 154.5t-216 40.5h-315l-139 -639h-191zM371 811h356q172 0 263 72.5t91 210.5q0 103 -65 154.5t-197 51.5h-346z" />
<glyph unicode="S" horiz-adv-x="1223" d="M8 418q0 6 1 19.5t1 19.5h185v-27q0 -141 86.5 -220t240.5 -79q151 0 240.5 75t89.5 200q0 141 -272 255v1q-253 107 -325.5 192.5t-72.5 230.5q0 192 140 309t370 117q231 0 357.5 -115.5t126.5 -326.5v-18h-191v6q0 144 -76.5 217.5t-228.5 73.5q-140 0 -222.5 -68 t-82.5 -182q0 -130 244 -236q39 -17 60 -26q223 -99 299.5 -187t76.5 -221q0 -219 -148.5 -345t-406.5 -126q-225 0 -358.5 125t-133.5 336z" />
<glyph unicode="T" horiz-adv-x="1108" d="M135 1305l35 168h1055l-37 -168h-408l-276 -1305h-197l277 1305h-449z" />
<glyph unicode="U" horiz-adv-x="1411" d="M92 371q0 28 7 76t22 122l192 904h195l-203 -961q-8 -36 -12 -68.5t-4 -58.5q0 -115 80.5 -178.5t226.5 -63.5q175 0 272.5 82.5t135.5 261.5l208 986h195l-211 -996q-33 -152 -76 -235.5t-114 -143.5q-81 -68 -188 -103.5t-230 -35.5q-226 0 -361 112.5t-135 299.5z" />
<glyph unicode="V" horiz-adv-x="1133" d="M90 1473h193l192 -1223l586 1223h201l-719 -1473h-205z" />
<glyph unicode="W" horiz-adv-x="1702" d="M137 1473h182l80 -1133l453 1133h195l112 -1147l447 1147h188l-575 -1473h-197l-117 1171l-463 -1171h-196z" />
<glyph unicode="X" horiz-adv-x="1071" d="M-111 0l547 754l-342 719h207l258 -564l391 564h226l-533 -736l348 -737h-207l-266 582l-405 -582h-224z" />
<glyph unicode="Y" horiz-adv-x="1055" d="M70 1473h204l254 -682l455 682h223l-614 -893l-119 -580h-197l125 610z" />
<glyph unicode="Z" horiz-adv-x="1176" d="M-41 0l37 174l938 1124h-729l39 175h962l-35 -175l-933 -1122h768l-39 -176h-1008z" />
<glyph unicode="[" horiz-adv-x="725" d="M10 -406l396 1879h350l-23 -140h-182l-346 -1607h192l-26 -132h-361z" />
<glyph unicode="\" horiz-adv-x="616" d="M178 1511h119l139 -1701h-123z" />
<glyph unicode="]" horiz-adv-x="725" d="M-115 -406l21 138h184l344 1607h-190l24 134h363l-398 -1879h-348z" />
<glyph unicode="^" horiz-adv-x="2048" d="M420 901l510 557h186l510 -557h-180l-422 420l-424 -420h-180z" />
<glyph unicode="_" d="M0 -340h1024v-143h-1024v143z" />
<glyph unicode="`" d="M352 1563h201l209 -349h-109z" />
<glyph unicode="a" horiz-adv-x="1081" d="M-16 295q0 172 109 254t368 98q5 0 14 1q291 19 291 161q0 70 -48.5 102.5t-154.5 32.5q-149 0 -206.5 -39t-82.5 -145h-178q28 169 144.5 253.5t322.5 84.5q187 0 288 -65.5t101 -184.5q0 -13 -4 -39t-16 -88l-98 -454q-6 -23 -8.5 -45t-2.5 -44q0 -29 18.5 -44 t55.5 -15q11 0 22 1.5t23 4.5l-27 -125q-24 -6 -51 -9t-63 -3q-72 0 -109 33.5t-37 99.5q-71 -77 -155.5 -115.5t-184.5 -38.5q-156 0 -243.5 87t-87.5 241zM168 295q0 -79 48 -125.5t130 -46.5q155 0 247.5 106t117.5 310q-81 -30 -214.5 -40t-174.5 -20 q-78 -18 -116 -63.5t-38 -120.5z" />
<glyph unicode="b" horiz-adv-x="1208" d="M-6 2l315 1471h174l-106 -523q64 75 148 114.5t180 39.5q187 0 296 -117t109 -319q0 -132 -43.5 -264.5t-120.5 -237.5q-70 -95 -170 -146t-217 -51q-128 0 -219 52.5t-137 152.5l-39 -172h-170zM264 412q0 -136 69.5 -210.5t194.5 -74.5q166 0 278 153.5t112 381.5 q0 134 -69.5 208t-195.5 74q-79 0 -145 -34.5t-117 -102.5q-58 -79 -92.5 -185t-34.5 -210z" />
<glyph unicode="c" horiz-adv-x="1139" d="M37 440q0 137 44 258.5t130 219.5q81 91 186 138.5t228 47.5q192 0 298 -102t111 -291h-182q0 111 -64.5 174t-177.5 63q-155 0 -269 -151.5t-114 -366.5q0 -144 65 -220.5t187 -76.5q107 0 192 70.5t126 193.5h178q-43 -197 -182.5 -314.5t-329.5 -117.5 q-211 0 -318.5 120t-107.5 355z" />
<glyph unicode="d" horiz-adv-x="1208" d="M31 414q0 136 41.5 261t117.5 220q78 95 182.5 148t217.5 53q112 0 198 -51t144 -152l119 580h174l-305 -1473h-162l22 133q-76 -86 -161.5 -127t-186.5 -41q-190 0 -295.5 117.5t-105.5 331.5zM217 401q0 -134 66 -211t180 -77q172 0 286.5 154t114.5 388 q0 134 -69 210.5t-189 76.5q-163 0 -276 -155t-113 -386z" />
<glyph unicode="e" horiz-adv-x="1135" d="M35 432q0 297 157 485.5t404 188.5q199 0 316.5 -117.5t117.5 -316.5q0 -38 -4 -83.5t-12 -103.5h-793v-5q-4 -44 -4 -62q0 -145 71.5 -221t207.5 -76q108 0 186.5 61.5t105.5 167.5h183q-38 -180 -171.5 -282.5t-328.5 -102.5q-211 0 -323.5 120.5t-112.5 346.5z M250 631h587q2 9 2.5 18.5t0.5 28.5q0 126 -65.5 198t-178.5 72q-129 0 -219.5 -82.5t-126.5 -234.5z" />
<glyph unicode="f" horiz-adv-x="545" d="M14 0l187 924h-148l29 147h147l35 168q25 130 87.5 185t183.5 55q24 0 53.5 -2.5t68.5 -8.5l-30 -161q-19 4 -40 6t-44 2q-80 0 -107 -120q-3 -12 -4 -18l-24 -106h182l-29 -147h-184l-187 -924h-176z" />
<glyph unicode="g" horiz-adv-x="1204" d="M-18 -106h178v-17q0 -75 64 -119.5t173 -44.5q170 0 248.5 85t122.5 325q-60 -69 -139 -104t-174 -35q-197 0 -306.5 120t-109.5 336q0 287 159.5 476.5t397.5 189.5q122 0 205.5 -53t128.5 -158l39 176h174l-228 -1089q-46 -220 -173 -323t-351 -103q-193 0 -301 88 t-108 245v5zM227 424q0 -137 67 -212t189 -75q172 0 277.5 147.5t105.5 389.5q0 129 -70 202.5t-194 73.5q-167 0 -271 -145.5t-104 -380.5z" />
<glyph unicode="h" horiz-adv-x="1141" d="M-6 0l313 1473h178l-116 -551q82 84 176 126t200 42q143 0 215 -59t72 -175q0 -29 -4 -62.5t-12 -68.5l-154 -725h-182l149 698q9 40 13 70.5t4 56.5q0 51 -44 82t-118 31q-153 0 -253.5 -102t-141.5 -299l-113 -537h-182z" />
<glyph unicode="i" horiz-adv-x="473" d="M-8 0l225 1071h180l-227 -1071h-178zM260 1257l45 216h178l-45 -216h-178z" />
<glyph unicode="j" horiz-adv-x="481" d="M-190 -422l26 159q6 0 13.5 -0.5t21.5 -0.5q47 0 68 19t32 72l265 1244h180l-269 -1264q-27 -129 -87 -182t-175 -53q-17 0 -36.5 1.5t-38.5 4.5zM276 1260l46 213h178l-45 -213h-179z" />
<glyph unicode="k" horiz-adv-x="1012" d="M-4 0l309 1473h178l-188 -881l534 479h254l-465 -401l248 -670h-194l-199 545l-229 -199l-76 -346h-172z" />
<glyph unicode="l" horiz-adv-x="473" d="M0 0l313 1473h179l-312 -1473h-180z" />
<glyph unicode="m" horiz-adv-x="1698" d="M-14 0l225 1071h170l-41 -180q81 100 171.5 147t199.5 47q115 0 174 -48t61 -144q88 99 178.5 146.5t188.5 47.5q130 0 203 -62t73 -171q0 -21 -3.5 -49.5t-10.5 -63.5l-160 -741h-190l168 762q4 18 6 33t2 28q0 51 -34 77t-101 26q-117 0 -217 -94t-131 -240l-130 -592 h-184l164 770q4 16 6 31.5t2 27.5q0 46 -30.5 71.5t-86.5 25.5q-127 0 -227 -88.5t-131 -227.5l-135 -610h-180z" />
<glyph unicode="n" horiz-adv-x="1130" d="M-14 0l227 1071h164l-35 -160q89 91 185.5 135t205.5 44q142 0 215.5 -59t73.5 -173q0 -26 -4.5 -59.5t-14.5 -74.5l-151 -724h-182l149 698q8 39 11.5 67t3.5 52q0 58 -42 89.5t-118 31.5q-154 0 -254 -102t-141 -299l-113 -537h-180z" />
<glyph unicode="o" horiz-adv-x="1176" d="M31 424q0 299 165.5 490.5t424.5 191.5q205 0 323.5 -122t118.5 -333q0 -298 -165.5 -489t-424.5 -191q-210 0 -326 119t-116 334zM219 410q0 -136 67.5 -209.5t192.5 -73.5q173 0 283 152.5t110 392.5q0 135 -69 205.5t-201 70.5q-85 0 -153 -37.5t-119 -113.5 q-51 -77 -81 -181.5t-30 -205.5z" />
<glyph unicode="p" horiz-adv-x="1208" d="M-86 -428l301 1499h166l-31 -153q71 89 157.5 133.5t188.5 44.5q186 0 291 -118t105 -327q0 -137 -42 -263t-120 -224q-76 -96 -175.5 -146.5t-211.5 -50.5q-110 0 -194 48t-144 145l-121 -588h-170zM268 403q0 -134 66.5 -208t185.5 -74q162 0 273.5 156t111.5 389 q0 132 -65 206t-181 74q-163 0 -277 -156.5t-114 -386.5z" />
<glyph unicode="q" horiz-adv-x="1208" d="M35 420q0 133 42 261t120 228q76 99 173.5 150t211.5 51q130 0 219 -50.5t139 -152.5l37 164h168l-316 -1499h-178l115 549q-69 -72 -150.5 -108t-177.5 -36q-186 0 -294.5 119t-108.5 324zM227 418q0 -135 68.5 -209t191.5 -74q78 0 145.5 36t121.5 108q57 75 91 177.5 t34 198.5q0 148 -67 222.5t-198 74.5q-86 0 -156 -38.5t-120 -114.5q-52 -79 -81.5 -179.5t-29.5 -201.5z" />
<glyph unicode="r" horiz-adv-x="668" d="M-8 0l225 1071h172l-45 -199q90 127 158 176.5t145 49.5q18 0 38.5 -2t43.5 -6l-45 -203h-5q-36 4 -54 4q-133 0 -218 -93t-126 -284l-111 -514h-178z" />
<glyph unicode="s" horiz-adv-x="1008" d="M-20 334q0 16 0.5 25t1.5 16h169q0 -6 -0.5 -14t-0.5 -23q0 -112 71.5 -169.5t210.5 -57.5q102 0 161.5 44t59.5 119q0 52 -30 86.5t-154 92.5q-19 9 -55 25q-297 138 -297 313q0 141 107 227t286 86q186 0 289.5 -93.5t103.5 -260.5v-23h-166v6q0 109 -58.5 164 t-174.5 55q-98 0 -154.5 -38.5t-56.5 -104.5q0 -80 178 -161l10 -5q234 -106 293.5 -173t59.5 -169q0 -153 -117 -245.5t-314 -92.5q-196 0 -309.5 99.5t-113.5 271.5z" />
<glyph unicode="t" horiz-adv-x="543" d="M35 150q0 20 4.5 51t13.5 80l137 643h-155l33 147h153l62 291h180l-62 -291h185l-31 -147h-186l-140 -662q-6 -25 -9 -44.5t-3 -31.5q0 -29 21.5 -45t60.5 -16q26 0 54 3t61 9l-29 -137q-38 -11 -70 -17t-55 -6q-113 0 -169 43t-56 130z" />
<glyph unicode="u" horiz-adv-x="1130" d="M33 213q0 31 4 64.5t12 68.5l154 725h182l-150 -697l-1 -6q-15 -75 -15 -112q0 -58 43 -90.5t119 -32.5q153 0 253.5 102t141.5 300l113 536h178l-225 -1071h-164l33 162q-89 -90 -185.5 -134t-206.5 -44q-142 0 -214 57.5t-72 171.5z" />
<glyph unicode="v" horiz-adv-x="946" d="M47 1071h174l125 -881l449 881h196l-577 -1071h-199z" />
<glyph unicode="w" horiz-adv-x="1505" d="M55 1071h174l97 -840l370 840h199l45 -850l422 850h194l-573 -1071h-184l-47 819l-377 -819h-182z" />
<glyph unicode="x" horiz-adv-x="905" d="M-147 0l462 557l-260 514h201l180 -381l307 381h211l-438 -532l262 -539h-196l-189 397l-325 -397h-215z" />
<glyph unicode="y" horiz-adv-x="946" d="M-84 -421l39 159q16 -6 34 -9t36 -3q35 0 62.5 16.5t45.5 48.5l88 154l-176 1126h193l116 -901l445 901h198l-696 -1329q-51 -97 -118.5 -139.5t-170.5 -42.5q-19 0 -43 4.5t-53 14.5z" />
<glyph unicode="z" horiz-adv-x="913" d="M-86 0l31 141l696 772h-561l31 158h809l-31 -131l-707 -780h606l-34 -160h-840z" />
<glyph unicode="{" d="M168 457v149q8 0 23 -1t22 -1q130 0 184 60.5t54 207.5v246q0 148 22.5 210.5t77.5 96.5q45 28 108.5 40t169.5 12h37v-150h-41q-120 0 -161 -44.5t-41 -184.5v-242q0 -160 -44.5 -228t-156.5 -98q113 -28 157 -96t44 -229v-242q0 -141 41.5 -185t162.5 -44h39v-148h-43 q-108 0 -169 11.5t-103 37.5q-55 34 -77.5 97t-22.5 211v245q0 149 -54.5 210t-185.5 61q-7 0 -21.5 -1t-21.5 -1z" />
<glyph unicode="|" d="M438 -483v2048h150v-2048h-150z" />
<glyph unicode="}" d="M160 -266h39q120 0 162 45t42 186v240q0 160 44.5 228t156.5 97q-112 30 -156.5 98t-44.5 228v242q0 140 -42 184.5t-162 44.5h-39v150h37q107 0 171 -12.5t107 -39.5q55 -34 77.5 -96.5t22.5 -210.5v-246q0 -147 54 -207.5t184 -60.5q7 0 22 1t23 1v-149q-7 0 -22 1 t-21 1q-132 0 -186 -60.5t-54 -210.5v-245q0 -148 -22.5 -211t-77.5 -97q-42 -26 -103 -37.5t-169 -11.5h-43v148z" />
<glyph unicode="~" horiz-adv-x="1706" d="M178 451v155q106 72 202 108t185 36q62 0 127.5 -13.5t163.5 -48.5q16 -5 47 -17q159 -57 240 -57q88 0 179.5 37t207.5 119v-156q-104 -72 -199 -106.5t-190 -34.5q-93 0 -256 58q-22 8 -34 12l-15 5q-176 60 -273 60q-84 0 -175 -37t-210 -120z" />
<glyph horiz-adv-x="1124" d="M-29 793l39 92h129q80 298 228 460t338 162q194 0 303.5 -132.5t109.5 -368.5v-25h-194v18q0 170 -57 258.5t-167 88.5q-114 0 -205.5 -117.5t-154.5 -343.5h451l-39 -92h-435q-5 -21 -10 -47.5t-12 -77.5h401l-39 -93h-372q-3 -46 -3.5 -68t-0.5 -42q0 -174 58 -263 t171 -89q115 0 205 107t127 290h192q-61 -261 -202.5 -409t-325.5 -148q-203 0 -310.5 140.5t-107.5 406.5q0 26 0.5 42.5t1.5 32.5h-106l39 93h75q7 48 11.5 75.5t9.5 48.5z" />
<glyph unicode="&#xa1;" horiz-adv-x="657" d="M72 0l276 1100h113l-187 -1100h-202zM317 1249l50 224h217l-47 -224h-220z" />
<glyph unicode="&#xa2;" horiz-adv-x="1124" d="M18 426q0 295 172 486.5t439 191.5h18l58 192h86l-62 -204q139 -33 212.5 -129.5t76.5 -251.5h-182q-2 89 -40 145t-114 82l-244 -805q5 0 15.5 -1t15.5 -1q105 0 186 69t125 197h181q-46 -198 -184 -313t-331 -115q-24 0 -36 0.5t-23 1.5l-68 -229h-86l74 242 q-142 37 -215.5 149t-73.5 293zM211 430q0 -109 37 -179t110 -99l242 796q-161 -2 -275 -152.5t-114 -365.5z" />
<glyph unicode="&#xa3;" horiz-adv-x="1124" d="M41 150q106 77 159.5 177.5t53.5 223.5q0 28 -2 53.5t-6 48.5h-189l27 103h145q-14 60 -21 114t-7 97q0 225 134 364t349 139q175 0 281 -93t106 -244q0 -34 -3 -71t-9 -77h-185q7 40 10 69t3 48q0 101 -53 154t-154 53q-135 0 -211 -89t-76 -247q0 -44 5.5 -97 t17.5 -120h358l-24 -103h-324v-4q4 -36 4 -55q0 -119 -56.5 -229.5t-172.5 -219.5q65 25 119 37.5t98 12.5q65 0 185 -30t171 -30q47 0 95.5 19.5t101.5 60.5l-58 -215q-40 -16 -81 -24.5t-82 -8.5q-67 0 -213.5 40t-225.5 40q-50 0 -110.5 -18.5t-124.5 -53.5z" />
<glyph unicode="&#xa4;" horiz-adv-x="1241" d="M80 428l207 205q-41 51 -62.5 116t-21.5 136q0 70 21 133t63 119l-207 206l82 80l205 -204q57 43 120 64.5t134 21.5t134.5 -21.5t121.5 -64.5l204 204l82 -80l-205 -206q41 -55 61.5 -118t20.5 -134q0 -73 -20 -135.5t-62 -116.5l205 -205l-82 -82l-204 205 q-59 -44 -122 -65t-132 -21q-72 0 -135.5 21.5t-120.5 64.5l-205 -205zM319 887q0 -126 89 -215.5t215 -89.5q125 0 214 89.5t89 215.5q0 125 -89 214t-214 89q-126 0 -215 -89t-89 -214z" />
<glyph unicode="&#xa5;" horiz-adv-x="1169" d="M-20 559l18 92h432l-53 135h-350l20 93h295l-199 512h187l248 -654l438 654h203l-355 -512h318l-21 -93h-360l-92 -135h424l-19 -92h-477l-113 -559h-184l115 559h-475z" />
<glyph unicode="&#xa6;" d="M438 -350v758h150v-758h-150zM438 674v758h150v-758h-150z" />
<glyph unicode="&#xa7;" d="M35 115l182 -1q10 -77 51.5 -117t112.5 -40q81 0 129.5 43t48.5 113q0 77 -122 174l-13 10l-176 139q-92 73 -129 130.5t-37 123.5q0 85 50.5 154t154.5 127q-31 45 -45.5 93.5t-14.5 104.5q0 135 98.5 226.5t243.5 91.5q162 0 250 -78t88 -221q0 -6 -1 -17t-1 -16h-184 q0 90 -37.5 131t-120.5 41q-66 0 -107.5 -37t-41.5 -96q0 -49 31 -92.5t120 -112.5l158 -121q90 -68 130 -133.5t40 -140.5q0 -95 -50 -167.5t-155 -127.5q29 -38 43 -83t14 -99q0 -139 -101.5 -233.5t-252.5 -94.5q-175 0 -265.5 83t-90.5 243zM262 719q0 -34 23.5 -66 t91.5 -86l207 -166q68 31 101.5 70t33.5 86q0 43 -24.5 80.5t-82.5 81.5l-217 164q-65 -25 -99 -67t-34 -97z" />
<glyph unicode="&#xa8;" d="M371 1274l45 209h182l-43 -209h-184zM700 1274l45 209h183l-43 -209h-185z" />
<glyph unicode="&#xa9;" horiz-adv-x="1706" d="M117 727q0 147 56 281.5t163 242.5q104 104 236 158.5t280 54.5q152 0 285.5 -54.5t238.5 -160.5q104 -103 159.5 -238.5t55.5 -283.5q0 -149 -54.5 -281.5t-158.5 -234.5q-110 -107 -245.5 -164t-280.5 -57t-278.5 56t-239.5 163q-106 105 -161.5 238.5t-55.5 279.5z M213 727q0 -126 49 -242t141 -209q92 -91 207.5 -139.5t243.5 -48.5q125 0 242 49t213 142q90 88 137 202.5t47 245.5q0 130 -47.5 246.5t-136.5 206.5q-93 92 -209 140t-246 48q-129 0 -243.5 -47t-204.5 -137q-93 -93 -143 -211.5t-50 -245.5zM463 733q0 200 109 322.5 t286 122.5q142 0 236.5 -75t105.5 -196h-147q-13 77 -66 118.5t-139 41.5q-105 0 -165 -90.5t-60 -249.5q0 -157 62 -244.5t173 -87.5q82 0 136.5 47t68.5 129h145q-9 -130 -107.5 -211t-248.5 -81q-182 0 -285.5 120t-103.5 334z" />
<glyph unicode="&#xaa;" horiz-adv-x="940" d="M55 473l23 109h686l-23 -109h-686zM121 885q0 126 93 199t275 92q18 1 51 5q187 18 187 130q0 40 -39 62t-113 22q-88 0 -141.5 -35t-66.5 -103h-136q22 117 122 184.5t251 67.5q139 0 204.5 -41.5t65.5 -130.5q0 -9 -2 -25t-6 -36l-79 -372q-3 -12 -5 -23t-2 -19 q0 -17 11.5 -26t33.5 -9q14 0 21 0.5t14 1.5l-23 -98q-10 -2 -37.5 -10t-41.5 -8q-53 0 -83 24t-30 66q0 5 1 12.5t3 21.5q-82 -64 -157 -94t-152 -30q-107 0 -163 44t-56 128zM268 920q0 -43 34 -68t93 -25q96 0 173.5 53.5t97.5 133.5l22 102q-54 -25 -158.5 -38 t-146.5 -25q-54 -17 -84.5 -52.5t-30.5 -80.5z" />
<glyph unicode="&#xab;" horiz-adv-x="909" d="M35 473l33 160l389 244l-37 -177l-258 -161l184 -185l-35 -159zM444 473l33 160l389 244l-37 -177l-258 -161l185 -185l-35 -159z" />
<glyph unicode="&#xac;" horiz-adv-x="1706" d="M254 721v139h1198v-502h-137v363h-1061z" />
<glyph unicode="&#xad;" horiz-adv-x="639" d="M18 461l37 162h494l-37 -162h-494z" />
<glyph unicode="&#xae;" horiz-adv-x="1706" d="M117 727q0 146 57.5 282.5t165.5 245.5q101 103 231.5 156t280.5 53q151 0 286 -56t240 -163q103 -104 158 -238t55 -280q0 -151 -55 -283.5t-160 -234.5q-109 -106 -244.5 -162.5t-279.5 -56.5q-147 0 -280.5 56.5t-239.5 164.5q-105 106 -160 238.5t-55 277.5zM213 727 q0 -125 48.5 -240.5t139.5 -207.5q90 -92 206.5 -141.5t240.5 -49.5q130 0 246.5 48t212.5 140q90 88 138 202.5t48 242.5q0 134 -46.5 251t-135.5 206q-92 93 -208.5 141.5t-248.5 48.5q-130 0 -245 -47t-201 -135q-94 -95 -144.5 -214t-50.5 -245zM557 324v835h315 q174 0 261.5 -57.5t87.5 -171.5q0 -89 -50 -148t-141 -77l187 -381h-177l-170 356h-155v-356h-158zM715 780h133q113 0 162 31.5t49 101.5q0 76 -51 110t-164 34h-129v-277z" />
<glyph unicode="&#xaf;" d="M0 1421v144h1024v-144h-1024z" />
<glyph unicode="&#xb0;" horiz-adv-x="674" d="M49 1167q0 120 84.5 204.5t204.5 84.5q118 0 202.5 -84.5t84.5 -204.5q0 -119 -84 -202.5t-205 -83.5t-204 83t-83 203zM143 1169q0 -81 57 -138.5t138 -57.5t136.5 57.5t55.5 138.5t-55.5 137t-136.5 56t-138 -56t-57 -137z" />
<glyph unicode="&#xb1;" horiz-adv-x="1706" d="M254 29v141h1198v-141h-1198zM254 713v139h528v340h142v-340h528v-139h-528v-340h-142v340h-528z" />
<glyph unicode="&#xb2;" horiz-adv-x="741" d="M4 557q8 73 33 127.5t69 95.5q33 31 77.5 62t142.5 86l5 3q232 133 232 245q0 65 -41 103t-110 38q-90 0 -139.5 -45.5t-63.5 -141.5h-125q18 139 101.5 212t224.5 73q127 0 203.5 -64t76.5 -171q0 -89 -51.5 -155.5t-187.5 -143.5q-24 -14 -67 -38q-200 -112 -234 -190 h468l-22 -96h-592z" />
<glyph unicode="&#xb3;" horiz-adv-x="741" d="M18 768q0 18 4 62q0 4 1 6l124 -1q-3 -15 -4.5 -30t-1.5 -29q0 -71 42 -108t122 -37q97 0 154 52.5t57 141.5q0 61 -46 94t-132 33h-35l21 90q9 -1 17.5 -1.5t25.5 -0.5q98 0 151 39.5t53 112.5q0 59 -41 94t-112 35q-81 0 -128 -42.5t-61 -127.5h-125q20 128 102.5 196 t217.5 68q123 0 196.5 -59t73.5 -158q0 -73 -39 -125.5t-114 -81.5q52 -30 77 -72.5t25 -99.5q0 -126 -94.5 -206.5t-243.5 -80.5q-136 0 -211.5 62t-75.5 174z" />
<glyph unicode="&#xb4;" d="M479 1214l232 349h190l-301 -349h-121z" />
<glyph unicode="&#xb5;" horiz-adv-x="1151" d="M-113 -428l318 1499h180l-129 -600q-7 -32 -10.5 -64.5t-3.5 -68.5q0 -99 52 -153t148 -54q132 0 208.5 92.5t123.5 311.5l115 536h178l-156 -732q-1 -6 -4 -20q-18 -87 -18 -112q0 -37 16.5 -52.5t55.5 -15.5q12 0 18.5 0.5t13.5 1.5l-31 -143q-24 -5 -50 -7.5t-58 -2.5 q-63 0 -97 29t-52 100q-45 -66 -112.5 -98.5t-158.5 -32.5q-82 0 -143 27.5t-113 88.5l-110 -530h-181z" />
<glyph unicode="&#xb6;" d="M66 1130q0 157 107.5 253t285.5 96h499v-86h-120v-1393h-111v1393h-176v-1393h-113v782q-170 8 -271 102.5t-101 245.5z" />
<glyph unicode="&#xb7;" horiz-adv-x="561" d="M154 702q0 53 36.5 90t90.5 37t91.5 -36.5t37.5 -90.5q0 -53 -38 -91t-91 -38t-90 38t-37 91z" />
<glyph unicode="&#xb8;" d="M63 -422l37 98q80 -23 130 -34t81 -11q73 0 105.5 23.5t32.5 75.5q0 43 -40 61.5t-139 18.5h-22l65 190h78l-35 -102h23q105 0 159 -42t54 -124q0 -99 -64.5 -152t-185.5 -53q-48 0 -115.5 12.5t-163.5 38.5z" />
<glyph unicode="&#xb9;" horiz-adv-x="741" d="M154 1174l20 81q132 4 210.5 42.5t113.5 117.5h86l-201 -858h-119l150 649q-51 -15 -115.5 -23t-144.5 -9z" />
<glyph unicode="&#xba;" horiz-adv-x="940" d="M76 473l22 109h643l-22 -109h-643zM158 987q0 222 130 372t328 150q139 0 215 -72t76 -202q0 -224 -130.5 -374t-327.5 -150q-137 0 -214 73.5t-77 202.5zM305 1010q0 -89 43.5 -137t124.5 -48q122 0 204.5 113t82.5 279q0 84 -45.5 131t-126.5 47q-119 0 -201 -112.5 t-82 -272.5z" />
<glyph unicode="&#xbb;" horiz-adv-x="909" d="M-20 195l36 176l258 161l-184 185l35 160l276 -277l-32 -162zM389 195l37 176l258 161l-182 185l35 160l276 -277l-35 -162z" />
<glyph unicode="&#xbc;" horiz-adv-x="1757" d="M148 1188l18 75q127 4 201.5 40t107.5 110h82l-192 -801h-113l143 607q-48 -14 -111 -22t-136 -9zM367 -41l899 1473h125l-899 -1473h-125zM1049 201l22 88l514 489h98l-116 -489h129l-21 -88h-131l-47 -201h-113l48 201h-383zM1188 289h266l80 338z" />
<glyph unicode="&#xbd;" horiz-adv-x="1757" d="M148 1188l18 75q127 4 201.5 40t107.5 110h82l-192 -801h-113l143 607q-48 -14 -111 -22t-136 -9zM367 -41l899 1473h125l-899 -1473h-125zM1055 0q6 67 30 118.5t68 90.5q50 48 186 124q15 9 23 13l10 6q215 121 215 226q0 60 -38.5 95.5t-104.5 35.5q-87 0 -133.5 -42 t-59.5 -130h-121q19 129 98 196.5t214 67.5q122 0 195 -60t73 -159q0 -84 -50 -146.5t-179 -134.5q-22 -12 -63 -34q-191 -104 -224 -177h446l-20 -90h-565z" />
<glyph unicode="&#xbe;" horiz-adv-x="1759" d="M18 809q0 24 1 37.5t3 25.5h119q-3 -14 -4.5 -28t-1.5 -27q0 -66 39.5 -100.5t116.5 -34.5q92 0 147.5 49t55.5 131q0 58 -44 88.5t-126 30.5h-35l20 84h41q94 0 144.5 36.5t50.5 104.5q0 55 -39.5 87t-106.5 32q-77 0 -122.5 -39.5t-59.5 -120.5h-117q19 120 97.5 184 t205.5 64q120 0 190.5 -55t70.5 -148q0 -67 -37.5 -115.5t-110.5 -76.5q49 -28 72.5 -67t23.5 -93q0 -118 -89.5 -193t-231.5 -75q-130 0 -201.5 57.5t-71.5 161.5zM367 -41l899 1473h125l-899 -1473h-125zM1049 201l22 88l514 489h98l-116 -489h129l-21 -88h-131l-47 -201 h-113l48 201h-383zM1188 289h266l80 338z" />
<glyph unicode="&#xbf;" horiz-adv-x="1075" d="M-16 338q0 120 57 215t184 184q31 22 88 58q112 70 144 112q21 27 34.5 66.5t22.5 97.5h170q-8 -114 -55 -200t-140 -154q-36 -27 -115 -78.5t-104 -77.5q-47 -51 -69.5 -103.5t-22.5 -113.5q0 -103 64 -161t178 -58q122 0 197 78.5t92 224.5h178q-14 -218 -140 -341.5 t-333 -123.5q-197 0 -313.5 102t-116.5 273zM512 1233l43 213h209l-45 -213h-207z" />
<glyph unicode="&#xc0;" horiz-adv-x="1237" d="M-150 0l793 1473h246l246 -1473h-199l-66 416h-587l-220 -416h-213zM373 588h469l-107 682zM518 1969h201l209 -349h-109z" />
<glyph unicode="&#xc1;" horiz-adv-x="1237" d="M-150 0l793 1473h246l246 -1473h-199l-66 416h-587l-220 -416h-213zM373 588h469l-107 682zM645 1620l232 349h190l-301 -349h-121z" />
<glyph unicode="&#xc2;" horiz-adv-x="1237" d="M-150 0l793 1473h246l246 -1473h-199l-66 416h-587l-220 -416h-213zM373 588h469l-107 682zM483 1620l267 349h184l137 -349h-108l-133 220l-226 -220h-121z" />
<glyph unicode="&#xc3;" horiz-adv-x="1237" d="M-150 0l793 1473h246l246 -1473h-199l-66 416h-587l-220 -416h-213zM373 588h469l-107 682zM518 1668q25 105 75 156.5t126 51.5q16 0 34 -2.5t36 -7.5l88 -26q12 -4 24 -6.5t23 -2.5q34 0 55 17t33 55h102q-28 -104 -77.5 -152.5t-129.5 -48.5q-17 0 -30.5 2t-26.5 7 l-88 28q-14 4 -27.5 6t-27.5 2q-34 0 -55.5 -20t-30.5 -59h-103z" />
<glyph unicode="&#xc4;" horiz-adv-x="1237" d="M-150 0l793 1473h246l246 -1473h-199l-66 416h-587l-220 -416h-213zM373 588h469l-107 682zM537 1680l45 209h182l-43 -209h-184zM866 1680l45 209h183l-43 -209h-185z" />
<glyph unicode="&#xc5;" horiz-adv-x="1237" d="M-150 0l793 1473h246l246 -1473h-199l-66 416h-587l-220 -416h-213zM373 588h469l-107 682zM557 1747q0 95 66 160t161 65t159.5 -64.5t64.5 -160.5q0 -95 -64.5 -160t-159.5 -65q-94 0 -160.5 66t-66.5 159zM668 1747q0 -49 33 -82t81 -33q49 0 82 33.5t33 81.5 t-33.5 81.5t-81.5 33.5t-81 -33t-33 -82z" />
<glyph unicode="&#xc6;" horiz-adv-x="1915" d="M-182 0l895 1473h1204l-37 -181h-696l-94 -446h673l-34 -174h-676l-107 -492h750l-39 -180h-940l90 416h-526l-248 -416h-215zM383 588h459l153 710h-188z" />
<glyph unicode="&#xc7;" horiz-adv-x="1448" d="M88 588q0 172 51 334t146 290q108 146 251 218.5t320 72.5q247 0 390 -137t155 -385h-197q-6 163 -103 253.5t-265 90.5q-126 0 -227 -57.5t-175 -171.5q-72 -113 -109.5 -243t-37.5 -265q0 -223 101 -343t288 -120q163 0 278.5 99.5t184.5 299.5h188 q-62 -276 -238.5 -420.5t-451.5 -144.5h-16l-23 -61h23q107 0 162 -44t55 -130q0 -90 -68.5 -143.5t-185.5 -53.5q-50 0 -117.5 12.5t-159.5 38.5l37 98q83 -25 133 -35t88 -10q63 0 94 24.5t31 74.5q0 44 -37.5 62t-136.5 18h-24l49 155q-214 39 -333.5 203t-119.5 420z " />
<glyph unicode="&#xc8;" horiz-adv-x="1204" d="M4 0l311 1473h891l-39 -181h-696l-94 -446h674l-37 -174h-674l-107 -492h752l-39 -180h-942zM524 1969h201l209 -349h-109z" />
<glyph unicode="&#xc9;" horiz-adv-x="1204" d="M4 0l311 1473h891l-39 -181h-696l-94 -446h674l-37 -174h-674l-107 -492h752l-39 -180h-942zM651 1620l232 349h190l-301 -349h-121z" />
<glyph unicode="&#xca;" horiz-adv-x="1204" d="M4 0l311 1473h891l-39 -181h-696l-94 -446h674l-37 -174h-674l-107 -492h752l-39 -180h-942zM489 1620l267 349h184l137 -349h-108l-133 220l-226 -220h-121z" />
<glyph unicode="&#xcb;" horiz-adv-x="1204" d="M4 0l311 1473h891l-39 -181h-696l-94 -446h674l-37 -174h-674l-107 -492h752l-39 -180h-942zM543 1680l45 209h182l-43 -209h-184zM872 1680l45 209h183l-43 -209h-185z" />
<glyph unicode="&#xcc;" horiz-adv-x="532" d="M8 0l311 1473h205l-313 -1473h-203zM188 1969h201l209 -349h-109z" />
<glyph unicode="&#xcd;" horiz-adv-x="532" d="M8 0l311 1473h205l-313 -1473h-203zM315 1620l232 349h190l-301 -349h-121z" />
<glyph unicode="&#xce;" horiz-adv-x="532" d="M8 0l311 1473h205l-313 -1473h-203zM153 1620l267 349h184l137 -349h-108l-133 220l-226 -220h-121z" />
<glyph unicode="&#xcf;" horiz-adv-x="532" d="M8 0l311 1473h205l-313 -1473h-203zM207 1680l45 209h182l-43 -209h-184zM536 1680l45 209h183l-43 -209h-185z" />
<glyph unicode="&#xd0;" horiz-adv-x="1470" d="M0 719l27 127h170l133 627h420q324 0 472 -146.5t148 -464.5q0 -187 -49 -346.5t-141 -273.5q-41 -51 -92 -93.5t-113 -76.5q-71 -39 -158.5 -55.5t-253.5 -16.5h-551l156 719h-168zM244 166h282q196 0 296.5 38.5t170.5 131.5q82 107 124 242t42 292q0 234 -100.5 334.5 t-337.5 100.5h-234l-96 -459h385l-26 -127h-388z" />
<glyph unicode="&#xd1;" horiz-adv-x="1432" d="M4 0l311 1473h193l481 -1162l246 1162h192l-311 -1473h-188l-486 1153l-245 -1153h-193zM637 1668q25 105 75 156.5t126 51.5q16 0 34 -2.5t36 -7.5l88 -26q12 -4 24 -6.5t23 -2.5q34 0 55 17t33 55h102q-28 -104 -77.5 -152.5t-129.5 -48.5q-17 0 -30.5 2t-26.5 7 l-88 28q-14 4 -27.5 6t-27.5 2q-34 0 -55.5 -20t-30.5 -59h-103z" />
<glyph unicode="&#xd2;" horiz-adv-x="1571" d="M80 584q0 184 64.5 361.5t181.5 314.5q104 122 247.5 186.5t311.5 64.5q280 0 440 -168.5t160 -463.5q0 -186 -66 -363t-186 -315q-101 -117 -244 -179.5t-309 -62.5q-279 0 -439.5 167.5t-160.5 457.5zM281 588q0 -214 110.5 -335.5t304.5 -121.5q111 0 210.5 46 t174.5 132q96 112 148.5 264.5t52.5 321.5q0 204 -112.5 324t-303.5 120q-116 0 -219 -50.5t-180 -145.5q-87 -108 -136.5 -256.5t-49.5 -298.5zM671 1969h201l209 -349h-109z" />
<glyph unicode="&#xd3;" horiz-adv-x="1571" d="M80 584q0 184 64.5 361.5t181.5 314.5q104 122 247.5 186.5t311.5 64.5q280 0 440 -168.5t160 -463.5q0 -186 -66 -363t-186 -315q-101 -117 -244 -179.5t-309 -62.5q-279 0 -439.5 167.5t-160.5 457.5zM281 588q0 -214 110.5 -335.5t304.5 -121.5q111 0 210.5 46 t174.5 132q96 112 148.5 264.5t52.5 321.5q0 204 -112.5 324t-303.5 120q-116 0 -219 -50.5t-180 -145.5q-87 -108 -136.5 -256.5t-49.5 -298.5zM798 1620l232 349h190l-301 -349h-121z" />
<glyph unicode="&#xd4;" horiz-adv-x="1571" d="M80 584q0 184 64.5 361.5t181.5 314.5q104 122 247.5 186.5t311.5 64.5q280 0 440 -168.5t160 -463.5q0 -186 -66 -363t-186 -315q-101 -117 -244 -179.5t-309 -62.5q-279 0 -439.5 167.5t-160.5 457.5zM281 588q0 -214 110.5 -335.5t304.5 -121.5q111 0 210.5 46 t174.5 132q96 112 148.5 264.5t52.5 321.5q0 204 -112.5 324t-303.5 120q-116 0 -219 -50.5t-180 -145.5q-87 -108 -136.5 -256.5t-49.5 -298.5zM636 1620l267 349h184l137 -349h-108l-133 220l-226 -220h-121z" />
<glyph unicode="&#xd5;" horiz-adv-x="1571" d="M80 584q0 184 64.5 361.5t181.5 314.5q104 122 247.5 186.5t311.5 64.5q280 0 440 -168.5t160 -463.5q0 -186 -66 -363t-186 -315q-101 -117 -244 -179.5t-309 -62.5q-279 0 -439.5 167.5t-160.5 457.5zM281 588q0 -214 110.5 -335.5t304.5 -121.5q111 0 210.5 46 t174.5 132q96 112 148.5 264.5t52.5 321.5q0 204 -112.5 324t-303.5 120q-116 0 -219 -50.5t-180 -145.5q-87 -108 -136.5 -256.5t-49.5 -298.5zM671 1668q25 105 75 156.5t126 51.5q16 0 34 -2.5t36 -7.5l88 -26q12 -4 24 -6.5t23 -2.5q34 0 55 17t33 55h102 q-28 -104 -77.5 -152.5t-129.5 -48.5q-17 0 -30.5 2t-26.5 7l-88 28q-14 4 -27.5 6t-27.5 2q-34 0 -55.5 -20t-30.5 -59h-103z" />
<glyph unicode="&#xd6;" horiz-adv-x="1571" d="M80 584q0 184 64.5 361.5t181.5 314.5q104 122 247.5 186.5t311.5 64.5q280 0 440 -168.5t160 -463.5q0 -186 -66 -363t-186 -315q-101 -117 -244 -179.5t-309 -62.5q-279 0 -439.5 167.5t-160.5 457.5zM281 588q0 -214 110.5 -335.5t304.5 -121.5q111 0 210.5 46 t174.5 132q96 112 148.5 264.5t52.5 321.5q0 204 -112.5 324t-303.5 120q-116 0 -219 -50.5t-180 -145.5q-87 -108 -136.5 -256.5t-49.5 -298.5zM690 1680l45 209h182l-43 -209h-184zM1019 1680l45 209h183l-43 -209h-185z" />
<glyph unicode="&#xd7;" horiz-adv-x="1706" d="M293 141l469 469l-469 469l98 99l469 -469l469 469l98 -99l-469 -469l469 -469l-98 -96l-469 467l-469 -467z" />
<glyph unicode="&#xd8;" horiz-adv-x="1571" d="M68 20l133 148q-64 88 -94.5 187t-30.5 218q0 189 65 369.5t181 314.5q104 124 248 189t311 65q125 0 225.5 -35.5t185.5 -109.5l127 139l70 -61l-131 -146q64 -87 94.5 -191.5t30.5 -236.5q0 -192 -63.5 -364.5t-184.5 -306.5q-105 -117 -248.5 -177.5t-316.5 -60.5 q-132 0 -231 33.5t-177 103.5l-125 -137zM279 557q0 -67 14 -127t43 -117l827 906q-60 57 -135.5 84.5t-171.5 27.5q-115 0 -213.5 -48.5t-175.5 -143.5q-89 -111 -138.5 -264t-49.5 -318zM389 240q54 -57 128 -84t177 -27q116 0 216 45t177 131q91 104 144 256t53 311 q0 75 -16.5 143.5t-50.5 133.5z" />
<glyph unicode="&#xd9;" horiz-adv-x="1411" d="M92 371q0 28 7 76t22 122l192 904h195l-203 -961q-8 -36 -12 -68.5t-4 -58.5q0 -115 80.5 -178.5t226.5 -63.5q175 0 272.5 82.5t135.5 261.5l208 986h195l-211 -996q-33 -152 -76 -235.5t-114 -143.5q-81 -68 -188 -103.5t-230 -35.5q-226 0 -361 112.5t-135 299.5z M616 1969h201l209 -349h-109z" />
<glyph unicode="&#xda;" horiz-adv-x="1411" d="M92 371q0 28 7 76t22 122l192 904h195l-203 -961q-8 -36 -12 -68.5t-4 -58.5q0 -115 80.5 -178.5t226.5 -63.5q175 0 272.5 82.5t135.5 261.5l208 986h195l-211 -996q-33 -152 -76 -235.5t-114 -143.5q-81 -68 -188 -103.5t-230 -35.5q-226 0 -361 112.5t-135 299.5z M743 1620l232 349h190l-301 -349h-121z" />
<glyph unicode="&#xdb;" horiz-adv-x="1411" d="M92 371q0 28 7 76t22 122l192 904h195l-203 -961q-8 -36 -12 -68.5t-4 -58.5q0 -115 80.5 -178.5t226.5 -63.5q175 0 272.5 82.5t135.5 261.5l208 986h195l-211 -996q-33 -152 -76 -235.5t-114 -143.5q-81 -68 -188 -103.5t-230 -35.5q-226 0 -361 112.5t-135 299.5z M581 1620l267 349h184l137 -349h-108l-133 220l-226 -220h-121z" />
<glyph unicode="&#xdc;" horiz-adv-x="1411" d="M92 371q0 28 7 76t22 122l192 904h195l-203 -961q-8 -36 -12 -68.5t-4 -58.5q0 -115 80.5 -178.5t226.5 -63.5q175 0 272.5 82.5t135.5 261.5l208 986h195l-211 -996q-33 -152 -76 -235.5t-114 -143.5q-81 -68 -188 -103.5t-230 -35.5q-226 0 -361 112.5t-135 299.5z M635 1680l45 209h182l-43 -209h-184zM964 1680l45 209h183l-43 -209h-185z" />
<glyph unicode="&#xdd;" horiz-adv-x="1055" d="M70 1473h204l254 -682l455 682h223l-614 -893l-119 -580h-197l125 610zM575 1620l232 349h190l-301 -349h-121z" />
<glyph unicode="&#xde;" horiz-adv-x="1233" d="M6 0l313 1473h193l-59 -285h297q203 0 307 -90.5t104 -266.5q0 -217 -143.5 -326.5t-427.5 -109.5h-305l-84 -395h-195zM319 563h283q196 0 281.5 65t85.5 212q0 97 -58 139.5t-194 42.5h-299z" />
<glyph unicode="&#xdf;" horiz-adv-x="1143" d="M-10 0l243 1126q37 173 154 266t297 93q185 0 289 -93.5t104 -258.5q0 -117 -60 -204.5t-171 -131.5q80 -51 121 -125t41 -168q0 -229 -155 -375.5t-398 -146.5q-33 0 -68.5 4.5t-73.5 13.5l37 162q37 -9 66 -13t53 -4q148 0 245 96t97 240q0 129 -69.5 191.5 t-213.5 62.5q-23 0 -36.5 -0.5t-24.5 -1.5l35 143q11 -1 22.5 -1.5t34.5 -0.5q164 0 247 65.5t83 195.5q0 88 -58 139t-157 51q-105 0 -172 -57t-90 -166l-240 -1102h-182z" />
<glyph unicode="&#xe0;" horiz-adv-x="1081" d="M-16 295q0 172 109 254t368 98q5 0 14 1q291 19 291 161q0 70 -48.5 102.5t-154.5 32.5q-149 0 -206.5 -39t-82.5 -145h-178q28 169 144.5 253.5t322.5 84.5q187 0 288 -65.5t101 -184.5q0 -13 -4 -39t-16 -88l-98 -454q-6 -23 -8.5 -45t-2.5 -44q0 -29 18.5 -44 t55.5 -15q11 0 22 1.5t23 4.5l-27 -125q-24 -6 -51 -9t-63 -3q-72 0 -109 33.5t-37 99.5q-71 -77 -155.5 -115.5t-184.5 -38.5q-156 0 -243.5 87t-87.5 241zM168 295q0 -79 48 -125.5t130 -46.5q155 0 247.5 106t117.5 310q-81 -30 -214.5 -40t-174.5 -20 q-78 -18 -116 -63.5t-38 -120.5zM362 1563h201l209 -349h-109z" />
<glyph unicode="&#xe1;" horiz-adv-x="1081" d="M-16 295q0 172 109 254t368 98q5 0 14 1q291 19 291 161q0 70 -48.5 102.5t-154.5 32.5q-149 0 -206.5 -39t-82.5 -145h-178q28 169 144.5 253.5t322.5 84.5q187 0 288 -65.5t101 -184.5q0 -13 -4 -39t-16 -88l-98 -454q-6 -23 -8.5 -45t-2.5 -44q0 -29 18.5 -44 t55.5 -15q11 0 22 1.5t23 4.5l-27 -125q-24 -6 -51 -9t-63 -3q-72 0 -109 33.5t-37 99.5q-71 -77 -155.5 -115.5t-184.5 -38.5q-156 0 -243.5 87t-87.5 241zM168 295q0 -79 48 -125.5t130 -46.5q155 0 247.5 106t117.5 310q-81 -30 -214.5 -40t-174.5 -20 q-78 -18 -116 -63.5t-38 -120.5zM489 1214l232 349h190l-301 -349h-121z" />
<glyph unicode="&#xe2;" horiz-adv-x="1081" d="M-16 295q0 172 109 254t368 98q5 0 14 1q291 19 291 161q0 70 -48.5 102.5t-154.5 32.5q-149 0 -206.5 -39t-82.5 -145h-178q28 169 144.5 253.5t322.5 84.5q187 0 288 -65.5t101 -184.5q0 -13 -4 -39t-16 -88l-98 -454q-6 -23 -8.5 -45t-2.5 -44q0 -29 18.5 -44 t55.5 -15q11 0 22 1.5t23 4.5l-27 -125q-24 -6 -51 -9t-63 -3q-72 0 -109 33.5t-37 99.5q-71 -77 -155.5 -115.5t-184.5 -38.5q-156 0 -243.5 87t-87.5 241zM168 295q0 -79 48 -125.5t130 -46.5q155 0 247.5 106t117.5 310q-81 -30 -214.5 -40t-174.5 -20 q-78 -18 -116 -63.5t-38 -120.5zM327 1214l267 349h184l137 -349h-108l-133 220l-226 -220h-121z" />
<glyph unicode="&#xe3;" horiz-adv-x="1081" d="M-16 295q0 172 109 254t368 98q5 0 14 1q291 19 291 161q0 70 -48.5 102.5t-154.5 32.5q-149 0 -206.5 -39t-82.5 -145h-178q28 169 144.5 253.5t322.5 84.5q187 0 288 -65.5t101 -184.5q0 -13 -4 -39t-16 -88l-98 -454q-6 -23 -8.5 -45t-2.5 -44q0 -29 18.5 -44 t55.5 -15q11 0 22 1.5t23 4.5l-27 -125q-24 -6 -51 -9t-63 -3q-72 0 -109 33.5t-37 99.5q-71 -77 -155.5 -115.5t-184.5 -38.5q-156 0 -243.5 87t-87.5 241zM168 295q0 -79 48 -125.5t130 -46.5q155 0 247.5 106t117.5 310q-81 -30 -214.5 -40t-174.5 -20 q-78 -18 -116 -63.5t-38 -120.5zM362 1262q25 105 75 156.5t126 51.5q16 0 34 -2.5t36 -7.5l88 -26q12 -4 24 -6.5t23 -2.5q34 0 55 17t33 55h102q-28 -104 -77.5 -152.5t-129.5 -48.5q-17 0 -30.5 2t-26.5 7l-88 28q-14 4 -27.5 6t-27.5 2q-34 0 -55.5 -20t-30.5 -59h-103z " />
<glyph unicode="&#xe4;" horiz-adv-x="1081" d="M-16 295q0 172 109 254t368 98q5 0 14 1q291 19 291 161q0 70 -48.5 102.5t-154.5 32.5q-149 0 -206.5 -39t-82.5 -145h-178q28 169 144.5 253.5t322.5 84.5q187 0 288 -65.5t101 -184.5q0 -13 -4 -39t-16 -88l-98 -454q-6 -23 -8.5 -45t-2.5 -44q0 -29 18.5 -44 t55.5 -15q11 0 22 1.5t23 4.5l-27 -125q-24 -6 -51 -9t-63 -3q-72 0 -109 33.5t-37 99.5q-71 -77 -155.5 -115.5t-184.5 -38.5q-156 0 -243.5 87t-87.5 241zM168 295q0 -79 48 -125.5t130 -46.5q155 0 247.5 106t117.5 310q-81 -30 -214.5 -40t-174.5 -20 q-78 -18 -116 -63.5t-38 -120.5zM381 1274l45 209h182l-43 -209h-184zM710 1274l45 209h183l-43 -209h-185z" />
<glyph unicode="&#xe5;" horiz-adv-x="1081" d="M-16 295q0 172 109 254t368 98q5 0 14 1q291 19 291 161q0 70 -48.5 102.5t-154.5 32.5q-149 0 -206.5 -39t-82.5 -145h-178q28 169 144.5 253.5t322.5 84.5q187 0 288 -65.5t101 -184.5q0 -13 -4 -39t-16 -88l-98 -454q-6 -23 -8.5 -45t-2.5 -44q0 -29 18.5 -44 t55.5 -15q11 0 22 1.5t23 4.5l-27 -125q-24 -6 -51 -9t-63 -3q-72 0 -109 33.5t-37 99.5q-71 -77 -155.5 -115.5t-184.5 -38.5q-156 0 -243.5 87t-87.5 241zM168 295q0 -79 48 -125.5t130 -46.5q155 0 247.5 106t117.5 310q-81 -30 -214.5 -40t-174.5 -20 q-78 -18 -116 -63.5t-38 -120.5zM403 1370q0 95 66 160t162 65q95 0 159 -64.5t64 -160.5q0 -95 -64.5 -160t-158.5 -65t-161 66t-67 159zM514 1370q0 -48 33.5 -81.5t81.5 -33.5t81 33.5t33 81.5t-33.5 81.5t-80.5 33.5q-48 0 -81.5 -33t-33.5 -82z" />
<glyph unicode="&#xe6;" horiz-adv-x="1772" d="M-16 289q0 178 108 259.5t393 102.5q9 1 25 2q266 21 266 162q0 64 -59 98.5t-168 34.5q-134 0 -192.5 -40t-82.5 -144h-178q28 168 143 253t314 85q130 0 218.5 -33.5t141.5 -101.5q78 68 167.5 101.5t195.5 33.5q172 0 279.5 -122t107.5 -321q0 -25 -3 -60.5 t-11 -104.5h-772q-1 -2 -1 -7q-4 -43 -4 -61q0 -145 68.5 -224t192.5 -79q111 0 191 61t106 166h180q-40 -179 -170.5 -281t-321.5 -102q-150 0 -249.5 64t-135.5 184q-89 -125 -192.5 -186.5t-225.5 -61.5q-153 0 -242 86.5t-89 235.5zM168 293q0 -79 50 -124.5t136 -45.5 q149 0 249.5 115.5t121.5 312.5q-104 -43 -252.5 -55t-179.5 -23q-65 -23 -95 -66.5t-30 -113.5zM909 637h568v37q0 135 -58.5 204.5t-173.5 69.5q-126 0 -219.5 -86.5t-116.5 -224.5z" />
<glyph unicode="&#xe7;" horiz-adv-x="1139" d="M37 444q0 281 169.5 470.5t420.5 189.5q190 0 297 -103t110 -290h-182q0 110 -65 173.5t-177 63.5q-155 0 -269 -152t-114 -366q0 -141 64.5 -220t179.5 -79q116 0 201 69.5t125 196.5h178q-45 -208 -179 -315t-360 -115l-22 -69h22q109 0 162 -43.5t53 -130.5 q0 -92 -66.5 -144.5t-185.5 -52.5q-49 0 -117 12.5t-161 38.5l37 98q83 -25 133 -35t88 -10q63 0 95 25t32 74q0 43 -38.5 61.5t-137.5 18.5h-25l53 159q-157 34 -239 155.5t-82 319.5z" />
<glyph unicode="&#xe8;" horiz-adv-x="1135" d="M35 432q0 297 157 485.5t404 188.5q199 0 316.5 -117.5t117.5 -316.5q0 -38 -4 -83.5t-12 -103.5h-793v-5q-4 -44 -4 -62q0 -145 71.5 -221t207.5 -76q108 0 186.5 61.5t105.5 167.5h183q-38 -180 -171.5 -282.5t-328.5 -102.5q-211 0 -323.5 120.5t-112.5 346.5z M250 631h587q2 9 2.5 18.5t0.5 28.5q0 126 -65.5 198t-178.5 72q-129 0 -219.5 -82.5t-126.5 -234.5zM354 1563h201l209 -349h-109z" />
<glyph unicode="&#xe9;" horiz-adv-x="1135" d="M35 432q0 297 157 485.5t404 188.5q199 0 316.5 -117.5t117.5 -316.5q0 -38 -4 -83.5t-12 -103.5h-793v-5q-4 -44 -4 -62q0 -145 71.5 -221t207.5 -76q108 0 186.5 61.5t105.5 167.5h183q-38 -180 -171.5 -282.5t-328.5 -102.5q-211 0 -323.5 120.5t-112.5 346.5z M250 631h587q2 9 2.5 18.5t0.5 28.5q0 126 -65.5 198t-178.5 72q-129 0 -219.5 -82.5t-126.5 -234.5zM481 1214l232 349h190l-301 -349h-121z" />
<glyph unicode="&#xea;" horiz-adv-x="1135" d="M35 432q0 297 157 485.5t404 188.5q199 0 316.5 -117.5t117.5 -316.5q0 -38 -4 -83.5t-12 -103.5h-793v-5q-4 -44 -4 -62q0 -145 71.5 -221t207.5 -76q108 0 186.5 61.5t105.5 167.5h183q-38 -180 -171.5 -282.5t-328.5 -102.5q-211 0 -323.5 120.5t-112.5 346.5z M250 631h587q2 9 2.5 18.5t0.5 28.5q0 126 -65.5 198t-178.5 72q-129 0 -219.5 -82.5t-126.5 -234.5zM319 1214l267 349h184l137 -349h-108l-133 220l-226 -220h-121z" />
<glyph unicode="&#xeb;" horiz-adv-x="1135" d="M35 432q0 297 157 485.5t404 188.5q199 0 316.5 -117.5t117.5 -316.5q0 -38 -4 -83.5t-12 -103.5h-793v-5q-4 -44 -4 -62q0 -145 71.5 -221t207.5 -76q108 0 186.5 61.5t105.5 167.5h183q-38 -180 -171.5 -282.5t-328.5 -102.5q-211 0 -323.5 120.5t-112.5 346.5z M250 631h587q2 9 2.5 18.5t0.5 28.5q0 126 -65.5 198t-178.5 72q-129 0 -219.5 -82.5t-126.5 -234.5zM373 1274l45 209h182l-43 -209h-184zM702 1274l45 209h183l-43 -209h-185z" />
<glyph unicode="&#xec;" horiz-adv-x="473" d="M-8 0l225 1071h180l-227 -1071h-178zM78 1563h201l209 -349h-109z" />
<glyph unicode="&#xed;" horiz-adv-x="473" d="M-8 0l225 1071h180l-227 -1071h-178zM205 1214l232 349h190l-301 -349h-121z" />
<glyph unicode="&#xee;" horiz-adv-x="473" d="M-8 0l225 1071h180l-227 -1071h-178zM43 1214l267 349h184l137 -349h-108l-133 220l-226 -220h-121z" />
<glyph unicode="&#xef;" horiz-adv-x="473" d="M-8 0l225 1071h180l-227 -1071h-178zM97 1274l45 209h182l-43 -209h-184zM426 1274l45 209h183l-43 -209h-185z" />
<glyph unicode="&#xf0;" horiz-adv-x="1176" d="M33 408q0 278 154 463.5t382 185.5q74 0 137.5 -18.5t112.5 -53.5q-32 73 -77 132.5t-101 103.5l-250 -113l-43 88l203 96q-52 29 -106 55.5t-109 49.5l53 110q94 -29 174 -66t152 -83l278 129l41 -90l-227 -109q129 -125 191.5 -279t62.5 -345q0 -311 -162 -501 t-424 -190q-212 0 -327 113.5t-115 321.5zM219 397q0 -131 66.5 -199.5t193.5 -68.5q174 0 283.5 145t109.5 373q0 127 -70 196.5t-198 69.5q-85 0 -155 -37t-121 -110q-50 -71 -79.5 -171.5t-29.5 -197.5z" />
<glyph unicode="&#xf1;" horiz-adv-x="1130" d="M-14 0l227 1071h164l-35 -160q89 91 185.5 135t205.5 44q142 0 215.5 -59t73.5 -173q0 -26 -4.5 -59.5t-14.5 -74.5l-151 -724h-182l149 698q8 39 11.5 67t3.5 52q0 58 -42 89.5t-118 31.5q-154 0 -254 -102t-141 -299l-113 -537h-180zM405 1262q25 105 75 156.5 t126 51.5q16 0 34 -2.5t36 -7.5l88 -26q12 -4 24 -6.5t23 -2.5q34 0 55 17t33 55h102q-28 -104 -77.5 -152.5t-129.5 -48.5q-17 0 -30.5 2t-26.5 7l-88 28q-14 4 -27.5 6t-27.5 2q-34 0 -55.5 -20t-30.5 -59h-103z" />
<glyph unicode="&#xf2;" horiz-adv-x="1176" d="M31 424q0 299 165.5 490.5t424.5 191.5q205 0 323.5 -122t118.5 -333q0 -298 -165.5 -489t-424.5 -191q-210 0 -326 119t-116 334zM219 410q0 -136 67.5 -209.5t192.5 -73.5q173 0 283 152.5t110 392.5q0 135 -69 205.5t-201 70.5q-85 0 -153 -37.5t-119 -113.5 q-51 -77 -81 -181.5t-30 -205.5zM368 1563h201l209 -349h-109z" />
<glyph unicode="&#xf3;" horiz-adv-x="1176" d="M31 424q0 299 165.5 490.5t424.5 191.5q205 0 323.5 -122t118.5 -333q0 -298 -165.5 -489t-424.5 -191q-210 0 -326 119t-116 334zM219 410q0 -136 67.5 -209.5t192.5 -73.5q173 0 283 152.5t110 392.5q0 135 -69 205.5t-201 70.5q-85 0 -153 -37.5t-119 -113.5 q-51 -77 -81 -181.5t-30 -205.5zM495 1214l232 349h190l-301 -349h-121z" />
<glyph unicode="&#xf4;" horiz-adv-x="1176" d="M31 424q0 299 165.5 490.5t424.5 191.5q205 0 323.5 -122t118.5 -333q0 -298 -165.5 -489t-424.5 -191q-210 0 -326 119t-116 334zM219 410q0 -136 67.5 -209.5t192.5 -73.5q173 0 283 152.5t110 392.5q0 135 -69 205.5t-201 70.5q-85 0 -153 -37.5t-119 -113.5 q-51 -77 -81 -181.5t-30 -205.5zM333 1214l267 349h184l137 -349h-108l-133 220l-226 -220h-121z" />
<glyph unicode="&#xf5;" horiz-adv-x="1176" d="M31 424q0 299 165.5 490.5t424.5 191.5q205 0 323.5 -122t118.5 -333q0 -298 -165.5 -489t-424.5 -191q-210 0 -326 119t-116 334zM219 410q0 -136 67.5 -209.5t192.5 -73.5q173 0 283 152.5t110 392.5q0 135 -69 205.5t-201 70.5q-85 0 -153 -37.5t-119 -113.5 q-51 -77 -81 -181.5t-30 -205.5zM368 1262q25 105 75 156.5t126 51.5q16 0 34 -2.5t36 -7.5l88 -26q12 -4 24 -6.5t23 -2.5q34 0 55 17t33 55h102q-28 -104 -77.5 -152.5t-129.5 -48.5q-17 0 -30.5 2t-26.5 7l-88 28q-14 4 -27.5 6t-27.5 2q-34 0 -55.5 -20t-30.5 -59h-103z " />
<glyph unicode="&#xf6;" horiz-adv-x="1176" d="M31 424q0 299 165.5 490.5t424.5 191.5q205 0 323.5 -122t118.5 -333q0 -298 -165.5 -489t-424.5 -191q-210 0 -326 119t-116 334zM219 410q0 -136 67.5 -209.5t192.5 -73.5q173 0 283 152.5t110 392.5q0 135 -69 205.5t-201 70.5q-85 0 -153 -37.5t-119 -113.5 q-51 -77 -81 -181.5t-30 -205.5zM387 1274l45 209h182l-43 -209h-184zM716 1274l45 209h183l-43 -209h-185z" />
<glyph unicode="&#xf7;" horiz-adv-x="1706" d="M254 541v139h1198v-139h-1198zM729 242q0 51 37 88t88 37t88 -37t37 -88q0 -52 -36.5 -88.5t-88.5 -36.5q-53 0 -89 36t-36 89zM729 979q0 52 37 89.5t88 37.5t88 -37.5t37 -89.5q0 -51 -36.5 -88t-88.5 -37t-88.5 36.5t-36.5 88.5z" />
<glyph unicode="&#xf8;" horiz-adv-x="1176" d="M-14 8l123 133q-40 58 -59 126t-19 149q0 304 166 497t426 193q87 0 161 -25t138 -75l102 110l66 -59l-111 -117q43 -61 63.5 -131.5t20.5 -155.5q0 -301 -164.5 -491.5t-425.5 -190.5q-97 0 -172 26t-133 79l-117 -125zM215 428q0 -40 6 -78t19 -71l561 600 q-33 35 -81.5 52t-117.5 17q-164 0 -275.5 -149.5t-111.5 -370.5zM285 201q32 -41 78.5 -61.5t105.5 -20.5q174 0 288.5 154t114.5 389q0 40 -5 75t-15 66z" />
<glyph unicode="&#xf9;" horiz-adv-x="1130" d="M33 213q0 31 4 64.5t12 68.5l154 725h182l-150 -697l-1 -6q-15 -75 -15 -112q0 -58 43 -90.5t119 -32.5q153 0 253.5 102t141.5 300l113 536h178l-225 -1071h-164l33 162q-89 -90 -185.5 -134t-206.5 -44q-142 0 -214 57.5t-72 171.5zM389 1563h201l209 -349h-109z" />
<glyph unicode="&#xfa;" horiz-adv-x="1130" d="M33 213q0 31 4 64.5t12 68.5l154 725h182l-150 -697l-1 -6q-15 -75 -15 -112q0 -58 43 -90.5t119 -32.5q153 0 253.5 102t141.5 300l113 536h178l-225 -1071h-164l33 162q-89 -90 -185.5 -134t-206.5 -44q-142 0 -214 57.5t-72 171.5zM516 1214l232 349h190l-301 -349 h-121z" />
<glyph unicode="&#xfb;" horiz-adv-x="1130" d="M33 213q0 31 4 64.5t12 68.5l154 725h182l-150 -697l-1 -6q-15 -75 -15 -112q0 -58 43 -90.5t119 -32.5q153 0 253.5 102t141.5 300l113 536h178l-225 -1071h-164l33 162q-89 -90 -185.5 -134t-206.5 -44q-142 0 -214 57.5t-72 171.5zM354 1214l267 349h184l137 -349 h-108l-133 220l-226 -220h-121z" />
<glyph unicode="&#xfc;" horiz-adv-x="1130" d="M33 213q0 31 4 64.5t12 68.5l154 725h182l-150 -697l-1 -6q-15 -75 -15 -112q0 -58 43 -90.5t119 -32.5q153 0 253.5 102t141.5 300l113 536h178l-225 -1071h-164l33 162q-89 -90 -185.5 -134t-206.5 -44q-142 0 -214 57.5t-72 171.5zM408 1274l45 209h182l-43 -209h-184 zM737 1274l45 209h183l-43 -209h-185z" />
<glyph unicode="&#xfd;" horiz-adv-x="946" d="M-84 -421l39 159q16 -6 34 -9t36 -3q35 0 62.5 16.5t45.5 48.5l88 154l-176 1126h193l116 -901l445 901h198l-696 -1329q-51 -97 -118.5 -139.5t-170.5 -42.5q-19 0 -43 4.5t-53 14.5zM440 1214l232 349h190l-301 -349h-121z" />
<glyph unicode="&#xfe;" horiz-adv-x="1208" d="M-86 -428l383 1901h172l-113 -555q60 86 148 132t192 46q186 0 291 -117.5t105 -327.5q0 -137 -42 -263t-120 -224q-76 -96 -175.5 -146.5t-211.5 -50.5q-110 0 -194 48t-144 145l-121 -588h-170zM268 403q0 -134 66.5 -208t185.5 -74q162 0 273.5 156t111.5 389 q0 132 -65 206t-181 74q-163 0 -277 -156.5t-114 -386.5z" />
<glyph unicode="&#xff;" horiz-adv-x="946" d="M-84 -421l39 159q16 -6 34 -9t36 -3q35 0 62.5 16.5t45.5 48.5l88 154l-176 1126h193l116 -901l445 901h198l-696 -1329q-51 -97 -118.5 -139.5t-170.5 -42.5q-19 0 -43 4.5t-53 14.5zM332 1274l45 209h182l-43 -209h-184zM661 1274l45 209h183l-43 -209h-185z" />
<glyph unicode="&#x152;" horiz-adv-x="2218" d="M80 582q0 185 64 362.5t180 312.5q102 120 241 186t287 66q129 0 226.5 -43.5t174.5 -136.5l31 144h936l-37 -181h-743l-97 -446h721l-34 -174h-723l-105 -492h797l-37 -180h-991l26 117q-84 -78 -181 -117t-208 -39q-238 0 -383 170t-145 451zM279 590 q0 -214 104.5 -339.5t282.5 -125.5q98 0 188 39t176 119l193 897q-61 82 -146 122.5t-194 40.5q-127 0 -231.5 -51t-186.5 -153q-86 -108 -136 -256t-50 -293z" />
<glyph unicode="&#x153;" horiz-adv-x="1923" d="M31 440q0 294 163.5 480t419.5 186q138 0 229 -47.5t142 -145.5q83 98 182.5 145.5t223.5 47.5q199 0 310 -112.5t111 -315.5q0 -30 -7 -123q-3 -43 -5 -67l-780 -1q-3 -21 -4.5 -41t-1.5 -40q0 -135 69.5 -209t194.5 -74q110 0 190 61t107 166h180q-42 -183 -172.5 -283 t-331.5 -100q-123 0 -212.5 50.5t-149.5 154.5q-77 -101 -184 -153t-240 -52q-201 0 -317.5 127t-116.5 346zM219 442q0 -155 68 -237t198 -82q172 0 274.5 141.5t102.5 378.5q0 153 -65.5 233t-190.5 80q-167 0 -277 -145t-110 -369zM1042 633h584q0 6 1 18.5t1 18.5 q0 135 -64.5 209.5t-181.5 74.5q-121 0 -210.5 -84.5t-129.5 -236.5z" />
<glyph unicode="&#x178;" horiz-adv-x="1055" d="M70 1473h204l254 -682l455 682h223l-614 -893l-119 -580h-197l125 610zM467 1680l45 209h182l-43 -209h-184zM796 1680l45 209h183l-43 -209h-185z" />
<glyph unicode="&#x2c6;" d="M317 1214l267 349h184l137 -349h-108l-133 220l-226 -220h-121z" />
<glyph unicode="&#x2dc;" d="M352 1262q25 105 75 156.5t126 51.5q16 0 34 -2.5t36 -7.5l88 -26q12 -4 24 -6.5t23 -2.5q34 0 55 17t33 55h102q-28 -104 -77.5 -152.5t-129.5 -48.5q-17 0 -30.5 2t-26.5 7l-88 28q-14 4 -27.5 6t-27.5 2q-34 0 -55.5 -20t-30.5 -59h-103z" />
<glyph unicode="&#x2000;" horiz-adv-x="986" />
<glyph unicode="&#x2001;" horiz-adv-x="1972" />
<glyph unicode="&#x2002;" horiz-adv-x="986" />
<glyph unicode="&#x2003;" horiz-adv-x="1972" />
<glyph unicode="&#x2004;" horiz-adv-x="657" />
<glyph unicode="&#x2005;" horiz-adv-x="493" />
<glyph unicode="&#x2006;" horiz-adv-x="328" />
<glyph unicode="&#x2007;" horiz-adv-x="328" />
<glyph unicode="&#x2008;" horiz-adv-x="246" />
<glyph unicode="&#x2009;" horiz-adv-x="394" />
<glyph unicode="&#x200a;" horiz-adv-x="109" />
<glyph unicode="&#x2010;" horiz-adv-x="639" d="M18 461l37 162h494l-37 -162h-494z" />
<glyph unicode="&#x2011;" horiz-adv-x="639" d="M18 461l37 162h494l-37 -162h-494z" />
<glyph unicode="&#x2012;" horiz-adv-x="639" d="M18 461l37 162h494l-37 -162h-494z" />
<glyph unicode="&#x2013;" d="M-49 487l24 109h1024l-24 -109h-1024z" />
<glyph unicode="&#x2014;" horiz-adv-x="2048" d="M-49 487l24 109h2048l-24 -109h-2048z" />
<glyph unicode="&#x2018;" horiz-adv-x="514" d="M227 1036l47 209q25 109 91.5 177t162.5 83l-18 -92q-53 -17 -83.5 -57.5t-43.5 -110.5h98l-45 -209h-209z" />
<glyph unicode="&#x2019;" horiz-adv-x="514" d="M207 1001l18 93q53 17 83.5 57.5t43.5 110.5h-98l45 211h209l-47 -211q-25 -109 -91 -177t-163 -84z" />
<glyph unicode="&#x201a;" horiz-adv-x="514" d="M-49 -260l18 94q54 18 84.5 58t42.5 110h-96l43 209h209l-47 -209q-25 -109 -91.5 -178t-162.5 -84z" />
<glyph unicode="&#x201c;" horiz-adv-x="846" d="M227 1036l47 209q25 109 91.5 177t162.5 83l-18 -92q-53 -17 -83.5 -57.5t-43.5 -110.5h98l-45 -209h-209zM559 1036l47 209q25 109 91 177t163 83l-18 -92q-53 -17 -83.5 -57.5t-43.5 -110.5h98l-45 -209h-209z" />
<glyph unicode="&#x201d;" horiz-adv-x="846" d="M207 1001l18 93q53 17 83.5 57.5t43.5 110.5h-98l45 211h209l-47 -211q-25 -109 -91 -177t-163 -84zM539 1001l18 93q53 17 83.5 57.5t43.5 110.5h-98l45 211h209l-47 -211q-25 -109 -91.5 -177t-162.5 -84z" />
<glyph unicode="&#x201e;" horiz-adv-x="846" d="M-49 -260l18 94q54 18 84.5 58t42.5 110h-96l43 209h209l-47 -209q-25 -109 -91.5 -178t-162.5 -84zM283 -260l18 94q54 18 84 58t43 110h-98l45 209h209l-47 -209q-25 -109 -91.5 -178t-162.5 -84z" />
<glyph unicode="&#x2022;" horiz-adv-x="1208" d="M307 762q0 123 87 209t210 86q122 0 208.5 -86.5t86.5 -208.5t-87.5 -209.5t-209.5 -87.5q-123 0 -209 87t-86 210z" />
<glyph unicode="&#x2026;" horiz-adv-x="2048" d="M92 0l47 221h221l-45 -221h-223zM774 0l47 221h221l-45 -221h-223zM1458 0l47 221h221l-45 -221h-223z" />
<glyph unicode="&#x202f;" horiz-adv-x="394" />
<glyph unicode="&#x2039;" horiz-adv-x="500" d="M35 473l33 160l389 244l-37 -177l-258 -161l184 -185l-35 -159z" />
<glyph unicode="&#x203a;" horiz-adv-x="500" d="M-20 195l36 176l258 161l-184 185l35 160l276 -277l-32 -162z" />
<glyph unicode="&#x205f;" horiz-adv-x="493" />
<glyph unicode="&#x20ac;" horiz-adv-x="1124" d="M-29 793l39 92h129q80 298 228 460t338 162q194 0 303.5 -132.5t109.5 -368.5v-25h-194v18q0 170 -57 258.5t-167 88.5q-114 0 -205.5 -117.5t-154.5 -343.5h451l-39 -92h-435q-5 -21 -10 -47.5t-12 -77.5h401l-39 -93h-372q-3 -46 -3.5 -68t-0.5 -42q0 -174 58 -263 t171 -89q115 0 205 107t127 290h192q-61 -261 -202.5 -409t-325.5 -148q-203 0 -310.5 140.5t-107.5 406.5q0 26 0.5 42.5t1.5 32.5h-106l39 93h75q7 48 11.5 75.5t9.5 48.5z" />
<glyph unicode="&#x2122;" horiz-adv-x="1706" d="M242 1378v80h452v-80h-172v-458h-108v458h-172zM813 920v538h150l151 -385l141 385h150v-538h-98v444l-166 -444h-56l-174 444v-444h-98z" />
<glyph unicode="&#x25fc;" horiz-adv-x="1070" d="M0 0v1070h1070v-1070h-1070z" />
<glyph unicode="&#xfb01;" horiz-adv-x="995" d="M12 0l189 924h-148l29 147h149l33 168q27 130 89.5 185t183.5 55q23 0 51.5 -2.5t68.5 -8.5l-30 -161q-19 4 -40 6t-44 2q-50 0 -74 -25.5t-41 -111.5l-20 -107h182l-29 -147h-184l-189 -924h-176zM510 0l227 1071h178l-227 -1071h-178zM778 1257l45 216h178l-45 -216 h-178z" />
<glyph unicode="&#xfb02;" horiz-adv-x="993" d="M12 0l189 924h-148l29 147h149l33 168q27 130 89.5 185t183.5 55q23 0 51.5 -2.5t68.5 -8.5l-30 -161q-20 4 -40 6t-42 2q-50 0 -74 -25.5t-41 -111.5l-22 -107h182l-27 -147h-186l-187 -924h-178zM512 0l313 1473h176l-313 -1473h-176z" />
</font>
</defs>
</svg>
